<?xml version="1.0" encoding="UTF-8" standalone="no"?>
<!-- Created with Inkscape (http://www.inkscape.org/) -->

<svg
   version="1.1"
   id="svg2011"
   width="380.45901"
   height="92.262299"
   viewBox="0 0 380.45901 92.262299"
   sodipodi:docname="logo.svg"
   inkscape:version="1.1 (c68e22c387, 2021-05-23)"
   inkscape:export-filename="C:\xampp\htdocs\proyectos\InterfacesTP3\img\logo.png"
   inkscape:export-xdpi="161.12436"
   inkscape:export-ydpi="161.12436"
   xmlns:inkscape="http://www.inkscape.org/namespaces/inkscape"
   xmlns:sodipodi="http://sodipodi.sourceforge.net/DTD/sodipodi-0.dtd"
   xmlns="http://www.w3.org/2000/svg"
   xmlns:svg="http://www.w3.org/2000/svg">
  <defs
     id="defs2015">
    <filter
       inkscape:collect="always"
       style="color-interpolation-filters:sRGB"
       id="filter22659"
       x="-0.031141001"
       y="-0.12972743"
       width="1.0622715"
       height="1.2593703">
      <feGaussianBlur
         inkscape:collect="always"
         stdDeviation="4.7332277"
         id="feGaussianBlur22661" />
    </filter>
    <filter
       inkscape:collect="always"
       style="color-interpolation-filters:sRGB"
       id="filter22703"
       x="-0.099802496"
       y="-0.10930809"
       width="1.199605"
       height="1.2186162">
      <feGaussianBlur
         inkscape:collect="always"
         stdDeviation="9.5818622"
         id="feGaussianBlur22705" />
    </filter>
  </defs>
  <sodipodi:namedview
     id="namedview2013"
     pagecolor="#ffffff"
     bordercolor="#666666"
     borderopacity="1.0"
     inkscape:pageshadow="2"
     inkscape:pageopacity="0.0"
     inkscape:pagecheckerboard="0"
     showgrid="false"
     inkscape:zoom="0.75369485"
     inkscape:cx="554.60111"
     inkscape:cy="32.506524"
     inkscape:window-width="1366"
     inkscape:window-height="705"
     inkscape:window-x="-8"
     inkscape:window-y="-8"
     inkscape:window-maximized="1"
     inkscape:current-layer="g2017" />
  <g
     inkscape:groupmode="layer"
     inkscape:label="Image"
     id="g2017">
    <g
       id="g48259"
       transform="matrix(1.0654208,0,0,1.1100868,6.0577619,18.868933)"
       inkscape:export-filename="C:\xampp\htdocs\proyectos\InterfacesTP3\img\logo.png"
       inkscape:export-xdpi="161.12436"
       inkscape:export-ydpi="161.12436"
       style="fill:#ffffff">
      <path
         style="mix-blend-mode:normal;fill:#ffffff;stroke:#00ffff;stroke-width:0.597;stroke-miterlimit:4;stroke-dasharray:none;stroke-opacity:1;filter:url(#filter22659)"
         d="m 521.43138,0.00368399 c -0.81147,-0.08834 -1.71497,-0.254964 -2.00776,-0.37028 -0.29281,-0.115314 -1.28238,-0.340578 -2.19908,-0.500585 -0.9167,-0.16000699 -1.91648,-0.41848299 -2.22175,-0.57439099 -0.30526,-0.155908 -0.99765,-0.378866 -1.53863,-0.495462 -0.54098,-0.116597 -1.33429,-0.392935 -1.76291,-0.614088 -0.4286,-0.221152 -0.90244,-0.402094 -1.05297,-0.402094 -0.25139,0 -1.19929,-0.439165 -2.69231,-1.247337 -0.52581,-0.284624 -1.1607,-0.588638 -2.06559,-0.989101 -0.16229,-0.07183 -0.69344,-0.394466 -1.18032,-0.716979 -0.48689,-0.32251 -1.16808,-0.718589 -1.51377,-0.880174 -0.34569,-0.161585 -0.84408,-0.493818 -1.10756,-0.738297 -0.26347,-0.244477 -1.12402,-0.887129 -1.91234,-1.428112 -1.30374,-0.894703 -7.47502,-6.823116 -8.30413,-7.977345 -0.19029,-0.264919 -0.55337,-0.747246 -0.80683,-1.071836 -0.25347,-0.32459 -0.57658,-0.811475 -0.71802,-1.081967 -0.14144,-0.270492 -0.42017,-0.60748 -0.61938,-0.748859 -0.19924,-0.141382 -0.36384,-0.362693 -0.36581,-0.491804 -0.004,-0.235682 -0.82714,-1.578619 -1.53129,-2.497042 -0.20738,-0.270492 -0.44593,-0.713115 -0.53013,-0.983607 -0.0842,-0.270492 -0.31792,-0.702923 -0.51943,-0.960956 -0.20151,-0.258033 -0.36672,-0.56787 -0.36713,-0.688525 -4e-4,-0.120655 -0.26564,-0.750519 -0.58942,-1.399699 -0.32378,-0.649181 -0.58902,-1.293927 -0.58942,-1.432769 -4e-4,-0.138844 -0.22207,-0.68918 -0.49255,-1.222969 -0.27049,-0.53379 -0.49457,-1.17265 -0.49795,-1.419691 -0.003,-0.247038 -0.22389,-0.891785 -0.49001,-1.432768 -0.26612,-0.540984 -0.48467,-1.317785 -0.48566,-1.726226 -9.8e-4,-0.408441 -0.18138,-1.249424 -0.40089,-1.868852 -0.98109,-2.768527 -1.05884,-15.762318 -0.10794,-18.038124 0.17079,-0.408763 0.40097,-1.309375 0.51152,-2.00136 0.11054,-0.691988 0.364,-1.632708 0.56324,-2.090488 0.19923,-0.45778 0.51541,-1.27495 0.70261,-1.81593 0.18721,-0.54099 0.47829,-1.38197 0.64685,-1.86886 0.16856,-0.48688 0.43007,-1.02969 0.58113,-1.20624 0.15105,-0.17654 0.36227,-0.63831 0.46935,-1.02615 0.1071,-0.38783 0.32737,-0.83782 0.48954,-0.99997 0.16215,-0.16216 0.43056,-0.61971 0.59647,-1.01678 0.16591,-0.39707 0.45868,-0.95345 0.65059,-1.2364 0.19192,-0.28295 0.60624,-0.91282 0.92071,-1.3997 0.31446,-0.48689 1.03221,-1.50492 1.59498,-2.2623 0.56278,-0.75737 1.18245,-1.59518 1.37705,-1.86178 0.6845,-0.93776 5.937,-6.01843 7.22711,-6.99068 0.71784,-0.54098 1.58961,-1.21477 1.93725,-1.49731 0.5894,-0.47901 1.21462,-0.86481 2.47652,-1.52814 0.28392,-0.14925 0.69326,-0.42678 0.90966,-0.61674 0.2164,-0.18995 0.61475,-0.41192 0.88524,-0.49326 0.27049,-0.0813 0.74204,-0.35709 1.04789,-0.61278 0.30585,-0.25568 0.68666,-0.46488 0.84628,-0.46488 0.15959,0 0.61757,-0.17137 1.01769,-0.38083 1.4526,-0.7604 2.90991,-1.37861 3.75888,-1.59454 0.47712,-0.12135 1.05253,-0.34173 1.2787,-0.48974 0.22618,-0.14801 0.80959,-0.33148 1.29647,-0.40773 0.48689,-0.0762 1.44055,-0.34629 2.11925,-0.6001 0.6787,-0.25382 1.58158,-0.46149 2.00641,-0.46149 0.42481,0 1.72853,-0.19359 2.89715,-0.4302 2.79309,-0.56553 8.72834,-0.62077 11.17391,-0.104 0.86558,0.1829 2.32623,0.41879 3.2459,0.52418 0.91967,0.1054 2.13784,0.37209 2.70704,0.59263 0.56919,0.22055 1.27738,0.40186 1.57376,0.40292 0.29638,0.001 1.01243,0.22237 1.59119,0.4918 0.57879,0.26944 1.22617,0.48988 1.43863,0.48988 0.21248,0 0.97827,0.27401 1.70178,0.60891 1.42117,0.65782 3.10394,1.43145 3.57776,1.64482 0.1623,0.0731 0.70083,0.37048 1.19674,0.66089 0.49591,0.2904 1.29263,0.73908 1.77049,0.99706 0.47786,0.25797 0.9131,0.53333 0.9672,0.61189 0.0541,0.0786 0.36394,0.29175 0.68853,0.47374 2.07504,1.16345 6.47303,5.06454 8.83821,7.83965 2.27973,2.67485 2.95097,3.5527 3.26695,4.27252 0.11746,0.26759 0.3432,0.62169 0.50165,0.78689 0.15845,0.1652 0.48666,0.61019 0.72933,0.98888 0.60187,0.93919 2.89337,5.57483 2.89337,5.8532 0,0.12339 0.22131,0.64057 0.49181,1.1493 0.27048,0.50872 0.4918,1.08003 0.4918,1.26956 0,0.18954 0.22045,0.81816 0.48987,1.39693 0.26945,0.57878 0.49076,1.34169 0.4918,1.69536 9.9e-4,0.353672 0.22325,1.276482 0.49374,2.050689 0.29372,0.8407 0.49321,1.849422 0.49532,2.504502 0.002,0.60327 0.13315,1.937837 0.29156,2.965706 0.33331,2.162744 0.37571,5.978304 0.0885,7.965842 -0.10934,0.756624 -0.27899,2.350066 -0.37701,3.540984 -0.098,1.190917 -0.32391,2.511803 -0.50197,2.935298 -0.17806,0.423496 -0.40884,1.298424 -0.51286,1.944286 -0.10401,0.645859 -0.32552,1.43807 -0.49223,1.760465 -0.16672,0.322394 -0.43178,1.0801 -0.58902,1.683789 -0.15724,0.603686 -0.37249,1.201955 -0.47833,1.329486 -0.10584,0.12753 -0.32411,0.675273 -0.48505,1.217207 -0.16094,0.541936 -0.41943,1.090583 -0.57443,1.219222 -0.155,0.128638 -0.34132,0.515474 -0.41406,0.859638 -0.0727,0.344162 -0.28956,0.8028 -0.48184,1.019194 -0.19227,0.216393 -0.41614,0.614754 -0.49748,0.885246 -0.0813,0.270491 -0.33495,0.726663 -0.56359,1.013714 -0.22864,0.287052 -0.68128,0.984583 -1.00587,1.55007 -0.32459,0.565485 -0.72295,1.174056 -0.88525,1.352378 -0.16229,0.178322 -0.53745,0.694484 -0.83368,1.147025 -1.33763,2.043477 -5.25886,6.11246 -7.82205,8.116805 -1.59041,1.243648 -3.03383,2.301122 -3.49919,2.563546 -0.29348,0.165504 -0.78326,0.467459 -1.08839,0.671014 -0.73935,0.493222 -1.47915,0.893058 -3.478,1.879724 -0.91967,0.453968 -1.99401,0.99396 -2.38743,1.199986 -0.39342,0.206024 -0.8275,0.374591 -0.96462,0.374591 -0.13713,0 -0.70048,0.211456 -1.25191,0.4699 -0.55142,0.258447 -1.39901,0.535214 -1.88353,0.61504 -0.48453,0.07982 -1.07343,0.271251 -1.30867,0.425388 -0.23525,0.154139 -1.0339,0.371199 -1.77479,0.48235699 -0.74089,0.111159 -1.92248,0.382766 -2.62576,0.603574 -1.14598,0.359801 -1.89118,0.407683 -7.18033,0.461363 -3.2459,0.03294 -6.56557,-0.01239 -7.37706,-0.100722 z m 4.01761,-28.56732299 c 0.33294,-0.102521 1.15821,-0.26037 1.83393,-0.350775 1.3936,-0.186445 2.76158,-0.679545 5.13535,-1.851067 2.66873,-1.317109 2.98033,-1.493198 2.98033,-1.684224 0,-0.100055 0.17561,-0.237657 0.39026,-0.305784 1.00924,-0.320317 4.48822,-3.723106 5.81425,-5.686892 0.82758,-1.225606 1.29702,-2.014159 1.5924,-2.674771 0.16931,-0.378689 0.42358,-0.821312 0.56503,-0.983607 0.14146,-0.162295 0.35911,-0.693442 0.48369,-1.180328 0.12458,-0.486885 0.39838,-1.394614 0.60847,-2.017176 0.30618,-0.907359 0.38196,-1.679359 0.38196,-3.891173 0,-2.500454 -0.0461,-2.868837 -0.4918,-3.927717 -0.27049,-0.642659 -0.4918,-1.257076 -0.4918,-1.365369 0,-0.294807 -1.19578,-1.963101 -1.86886,-2.607331 -0.52087,-0.49856 -0.85207,-0.74272 -2.06557,-1.52278 -1.92377,-1.23663 -5.43634,-1.71765 -9.55396,-1.30834 -1.5628,0.15535 -2.75806,0.3736 -3.04919,0.55677 -0.26335,0.16569 -0.82529,0.36218 -1.24876,0.43665 -0.69728,0.12263 -1.94934,0.65539 -3.26285,1.38838 -0.27049,0.15095 -0.82377,0.42054 -1.22951,0.5991 -0.40573,0.17856 -0.7377,0.40238 -0.7377,0.49738 0,0.095 -0.28771,0.307393 -0.63934,0.471995 -0.96561,0.451997 -1.6635,1.019841 -3.50709,2.853545 -2.14411,2.132619 -3.44259,3.687477 -3.80619,4.557683 -0.15782,0.377713 -0.42485,0.801201 -0.59339,0.941082 -0.16855,0.13988 -0.30645,0.357558 -0.30645,0.483728 0,0.126171 -0.18306,0.580085 -0.4068,1.0087 -0.35787,0.685568 -0.6408,1.561363 -1.3639,4.221923 -0.10292,0.378688 -0.18924,1.62322 -0.19182,2.765626 -0.004,1.815291 0.0683,2.277 0.5741,3.663034 0.31834,0.872262 0.80473,1.92937 1.08087,2.349128 0.90677,1.378369 2.51253,2.829918 3.45509,3.123271 0.27049,0.08419 0.69997,0.315608 0.95439,0.514275 0.25441,0.198667 0.78556,0.411419 1.18032,0.472784 0.39476,0.06136 1.2489,0.237958 1.89808,0.392432 0.64918,0.154471 1.40164,0.319444 1.67213,0.366602 0.69083,0.120446 3.48827,-0.08317 4.21433,-0.306754 z M 752.874,-0.00127701 c -0.97377,-0.0911 -2.13404,-0.297273 -2.57834,-0.458148 -0.44432,-0.160875 -1.41809,-0.355657 -2.16395,-0.432846 -0.74585,-0.07719 -1.71018,-0.29706899 -2.14296,-0.48861399 -0.43278,-0.191546 -1.18525,-0.412978 -1.67213,-0.492069 -0.48689,-0.07909 -1.1992,-0.302855 -1.58292,-0.497249 -0.38373,-0.194394 -1.04765,-0.413372 -1.47541,-0.486616 -0.42774,-0.07325 -1.00076,-0.289501 -1.27333,-0.480568 -0.2726,-0.19107 -0.71523,-0.411181 -0.98361,-0.489136 -0.54318,-0.157765 -2.71604,-1.231883 -4.22572,-2.088915 -0.54098,-0.307111 -1.35,-0.732659 -1.79782,-0.945661 -0.44782,-0.213002 -0.84619,-0.46103 -0.88526,-0.551172 -0.039,-0.09014 -0.60216,-0.514178 -1.25134,-0.942301 -0.64918,-0.42812 -1.32783,-0.915006 -1.50813,-1.081967 -0.18029,-0.166959 -0.84423,-0.7451 -1.47541,-1.284757 -2.13549,-1.825822 -5.08467,-4.934652 -6.164,-6.497662 -0.2705,-0.39171 -0.69099,-0.96232 -0.93443,-1.268021 -0.24344,-0.305701 -0.44262,-0.639977 -0.44262,-0.742835 0,-0.102858 -0.16897,-0.339921 -0.37547,-0.526808 -0.20651,-0.186885 -0.48641,-0.621098 -0.62201,-0.964914 -0.13558,-0.343818 -0.39834,-0.802173 -0.58391,-1.018566 -0.18554,-0.216394 -0.44132,-0.718328 -0.56838,-1.115412 -0.12707,-0.397082 -0.35359,-0.823692 -0.50339,-0.94802 -0.14981,-0.124328 -0.33187,-0.507637 -0.4046,-0.851801 -0.0727,-0.344162 -0.28782,-0.891325 -0.47801,-1.215915 -0.19017,-0.32459 -0.44955,-1.018875 -0.57638,-1.542852 -0.12682,-0.523979 -0.35349,-1.143651 -0.50368,-1.377049 -0.1502,-0.2334 -0.33228,-0.77846 -0.40464,-1.211246 -0.0723,-0.432787 -0.34446,-1.421428 -0.6047,-2.196978 -0.26026,-0.775552 -0.47319,-1.798641 -0.47319,-2.27353 0,-0.474891 -0.18107,-1.832152 -0.40236,-3.016137 -0.51991,-2.781671 -0.57594,-8.175382 -0.11227,-10.808438 0.17149,-0.973771 0.39931,-2.617128 0.5063,-3.651905 0.10698,-1.034776 0.33412,-2.215529 0.50475,-2.623895 0.17062,-0.408364 0.40236,-1.240888 0.51498,-1.850053 0.1126,-0.60916 0.36293,-1.42021 0.55627,-1.80233 0.19334,-0.38212 0.4177,-1.0046 0.49857,-1.38329 0.0809,-0.37869 0.3096,-0.99836 0.50829,-1.37705 0.19871,-0.37869 0.4065,-0.91564 0.46178,-1.19323 0.0553,-0.27759 0.27455,-0.70536 0.48724,-0.9506 0.2127,-0.24524 0.44142,-0.69501 0.50831,-0.99949 0.0669,-0.30447 0.29362,-0.70927 0.50388,-0.89956 0.21026,-0.19028 0.38229,-0.44743 0.38229,-0.57144 0,-0.19134 0.69629,-1.30221 1.96721,-3.13853 1.02077,-1.47487 3.20756,-3.94047 4.79772,-5.40939 0.42071,-0.38864 1.12448,-1.04864 1.56391,-1.46667 0.43944,-0.41803 1.11325,-0.97036 1.49737,-1.22741 1.43341,-0.95923 1.69367,-1.14518 2.1738,-1.55318 0.27049,-0.22985 0.71311,-0.5226 0.98361,-0.65054 0.27049,-0.12794 0.93442,-0.49137 1.47541,-0.80762 0.54098,-0.31626 1.73605,-0.93964 2.65572,-1.38529 0.91967,-0.44566 1.98198,-0.97307 2.36067,-1.17203 0.37869,-0.19896 0.99836,-0.4258 1.37705,-0.50409 0.37869,-0.0783 0.90771,-0.28158 1.1756,-0.45177 0.2679,-0.17019 0.9761,-0.42198 1.57377,-0.55953 0.59768,-0.13755 1.57358,-0.42935 2.16866,-0.64844 0.59508,-0.21909 1.35814,-0.40124 1.69568,-0.40477 0.33755,-0.004 1.17625,-0.18613 1.86378,-0.40576 0.68752,-0.21964 2.31464,-0.48642 3.61579,-0.59284 1.30116,-0.10642 2.85262,-0.27959 3.4477,-0.38484 0.59508,-0.10524 2.85246,-0.24764 5.01639,-0.31646 3.41082,-0.10846 4.32166,-0.0695 6.84402,0.29238 1.60029,0.22962 3.41504,0.41756 4.03278,0.41763 0.61777,8e-5 1.91993,0.21283 2.8937,0.47277 0.97377,0.25995 2.3348,0.5311 3.02455,0.60257 0.68972,0.0715 1.66349,0.28955 2.16393,0.48463 0.50042,0.19507 1.32313,0.41508 1.82821,0.4889 0.5051,0.0738 1.00538,0.24053 1.11175,0.37047 0.2392,0.29221 -0.21232,2.82663 -0.65667,3.68591 -0.16863,0.32611 -0.39866,1.09088 -0.51116,1.69949 -0.11253,0.6086 -0.37468,1.42394 -0.58259,1.81186 -0.20792,0.38792 -0.37997,0.97219 -0.38235,1.29838 -0.002,0.32619 -0.18006,0.98041 -0.39486,1.4538 -0.2148,0.4734 -0.52513,1.44104 -0.68961,2.1503 -0.1645,0.70927 -0.38311,1.39084 -0.48584,1.5146 -0.10271,0.12377 -0.32363,0.87576 -0.49094,1.6711 -0.16731,0.79534 -0.39143,1.55119 -0.49804,1.67966 -0.10662,0.12847 -0.28969,0.75193 -0.4068,1.38547 -0.11713,0.63354 -0.37133,1.46454 -0.5649,1.84666 -0.19358,0.38212 -0.41744,1.09313 -0.49747,1.58001 -0.08,0.48689 -0.30352,1.19716 -0.49664,1.57839 -0.19312,0.38123 -0.41546,1.13369 -0.49409,1.67213 -0.0786,0.53845 -0.29579,1.28883 -0.48262,1.66752 -0.18682,0.37869 -0.40361,0.953598 -0.48177,1.277584 -0.28036,1.16235 -0.70023,1.196414 -1.88095,0.152609 -0.54631,-0.482961 -1.66837,-1.221893 -2.16393,-1.425053 -0.27049,-0.1109 -0.62459,-0.29085 -0.78689,-0.39989 -0.45452,-0.3054 -0.94705,-0.49821 -2.69966,-1.05684 -2.26391,-0.7216 -5.16787,-0.73079 -7.52984,-0.0238 -0.9037,0.27049 -1.82668,0.49457 -2.05106,0.49796 -0.22438,0.003 -0.85058,0.22388 -1.39157,0.49 -0.54098,0.26612 -1.12133,0.48466 -1.28964,0.48565 -0.16834,9.9e-4 -0.60602,0.22311 -0.97265,0.493602 -0.36663,0.270491 -0.79956,0.491803 -0.96207,0.491803 -0.16251,0 -0.61007,0.208023 -0.99456,0.462271 -0.38451,0.254249 -1.14173,0.736983 -1.68272,1.072743 -1.16793,0.724867 -1.6966,1.115725 -2.58025,1.907609 -1.07807,0.966096 -2.88942,2.783514 -3.46887,3.480502 -1.11391,1.339837 -1.52475,1.892575 -1.52823,2.056094 -0.002,0.09258 -0.26754,0.557874 -0.59016,1.033991 -0.32262,0.476118 -0.58658,1.017458 -0.58658,1.202978 0,0.185522 -0.16423,0.54843 -0.36494,0.806463 -0.20072,0.258033 -0.42592,0.823251 -0.50046,1.256038 -0.0745,0.432787 -0.2737,1.373394 -0.44258,2.090241 -0.16889,0.716844 -0.26703,1.734877 -0.21809,2.262295 0.10432,1.124117 0.68963,3.583381 0.95396,4.00812 0.101,0.162295 0.35058,0.649181 0.55464,1.081967 0.42112,0.893123 2.01903,2.646034 3.04959,3.345386 1.05873,0.71848 3.54592,1.867729 4.04209,1.867729 0.24352,0 0.9867,0.146623 1.6515,0.32583 1.53783,0.414545 4.18768,0.412109 5.76169,-0.0053 0.6648,-0.176294 1.48633,-0.320534 1.82561,-0.320534 0.33929,0 1.12322,-0.21116 1.74209,-0.469247 0.61888,-0.258085 1.40681,-0.529349 1.75097,-0.602807 0.34417,-0.07346 0.73277,-0.262499 0.86355,-0.420087 0.13078,-0.157589 0.61834,-0.382347 1.08344,-0.499461 0.46511,-0.117116 0.99762,-0.380851 1.18334,-0.586078 0.18573,-0.205226 0.43462,-0.374751 0.5531,-0.37672 0.24236,-0.004 1.72932,-0.944081 2.47771,-1.566415 0.27049,-0.224927 0.7989,-0.649761 1.17427,-0.944073 1.01453,-0.795496 3.55656,-3.40193 3.95901,-4.059337 0.19309,-0.315374 0.62528,-0.688714 0.96046,-0.829645 0.5651,-0.23761 0.62122,-0.224528 0.77201,0.179965 0.0894,0.239909 0.22582,0.878823 0.30309,1.419807 0.0773,0.540983 0.2637,1.175575 0.41429,1.410202 0.15059,0.234628 0.40653,1.063259 0.56878,1.841404 0.16226,0.778143 0.3842,1.522285 0.49322,1.653646 0.10903,0.131362 0.33223,0.875893 0.49602,1.654512 0.16379,0.778621 0.42462,1.613005 0.57962,1.854185 0.15501,0.241181 0.37375,0.945323 0.48605,1.564761 0.11233,0.619436 0.32996,1.371895 0.48364,1.672131 0.15368,0.300234 0.34167,0.944241 0.41776,1.431126 0.0761,0.486886 0.31068,1.22532 0.52129,1.640967 0.21063,0.415647 0.43914,1.168106 0.50782,1.672131 0.0686,0.504026 0.33057,1.359034 0.582,1.900017 0.25143,0.540984 0.45803,1.252594 0.45907,1.581356 0.002,0.328763 0.17736,0.941863 0.39179,1.362445 0.21442,0.420582 0.47659,1.233818 0.58259,1.80719 0.10599,0.573372 0.32065,1.289926 0.47705,1.592343 0.15637,0.302418 0.37768,1.054877 0.4918,1.672132 0.1141,0.617254 0.34708,1.392263 0.51771,1.72224 0.17064,0.329976 0.40303,1.106771 0.51643,1.726208 0.11341,0.619438 0.38434,1.416456 0.60207,1.77115 0.3179,0.517885 0.34855,0.701922 0.15559,0.934427 -0.13216,0.15924 -0.34352,0.289526 -0.46969,0.289526 -0.12618,0 -0.5801,0.179715 -1.00871,0.399368 -0.42862,0.219653 -1.36877,0.523045 -2.08924,0.674203 -0.72047,0.151161 -1.56146,0.402248 -1.86885,0.557971 -0.3074,0.155725 -1.11179,0.343568 -1.78753,0.417433 -0.67574,0.07386 -1.54232,0.265365 -1.92573,0.425561 -0.38339,0.160194 -1.64526,0.416544 -2.80416,0.56966599 -1.15889,0.153122 -2.63821,0.424223 -3.28739,0.602449 -0.95803,0.263012 -2.40299,0.336332 -7.67213,0.389294 -3.57049,0.03589 -7.28853,-0.0093 -8.2623,-0.100398 z M 432.6117,-3.92724 c -3.04886,-0.09344 -5.2788,-0.258535 -6.29509,-0.466072 -0.86557,-0.176759 -2.90164,-0.410503 -4.52459,-0.519431 -1.62295,-0.108927 -3.24846,-0.284676 -3.61225,-0.390553 -0.36379,-0.105878 -1.33643,-0.286387 -2.16142,-0.401133 -0.82499,-0.114745 -1.60429,-0.317254 -1.73178,-0.450019 -0.26836,-0.279472 0.0693,-2.313508 0.57892,-3.487293 0.16441,-0.378688 0.36325,-1.131147 0.44186,-1.672131 0.0786,-0.540984 0.3036,-1.302732 0.49996,-1.692773 0.19637,-0.39004 0.41809,-1.186761 0.49271,-1.770492 0.0746,-0.583729 0.26287,-1.312834 0.41832,-1.620232 0.15546,-0.307399 0.41251,-1.181707 0.57123,-1.942907 0.15871,-0.761199 0.414,-1.626566 0.56731,-1.923037 0.15332,-0.296471 0.365,-1.074571 0.47041,-1.729108 0.10541,-0.654539 0.33529,-1.467832 0.51085,-1.80732 0.17555,-0.33949 0.37088,-1.077246 0.43407,-1.639462 0.18666,-1.66099 -0.081,-1.58844 5.27193,-1.429131 2.59781,0.07732 5.39556,0.217183 6.21723,0.310816 0.82166,0.09363 3.56592,0.230282 6.09836,0.303665 4.28412,0.124141 4.72262,0.104457 6.30344,-0.28297 0.93446,-0.229017 1.82731,-0.416394 1.98411,-0.416394 0.55143,0 2.08411,-1.393733 2.3995,-2.181972 0.39941,-0.998215 0.38673,-1.467897 -0.0666,-2.466114 -0.42433,-0.93444 -2.18985,-2.23716 -3.03193,-2.23716 -0.28388,0 -1.07144,-0.208312 -1.75013,-0.462917 -0.67871,-0.254605 -1.88145,-0.526094 -2.67276,-0.603311 -0.79132,-0.07721 -1.80935,-0.272215 -2.2623,-0.433332 -0.45294,-0.161114 -1.57598,-0.382404 -2.49567,-0.491754 -0.91967,-0.109349 -2.11475,-0.358629 -2.65573,-0.553955 -0.54099,-0.195325 -1.51383,-0.419762 -2.16188,-0.498748 -0.64805,-0.07898 -1.48904,-0.299671 -1.86885,-0.490412 -0.37982,-0.190741 -1.04468,-0.409525 -1.47747,-0.486185 -0.43279,-0.07666 -1.06366,-0.300508 -1.40194,-0.497436 -0.33828,-0.196929 -0.90107,-0.420873 -1.25065,-0.497651 -0.34957,-0.07678 -0.94827,-0.351789 -1.33043,-0.611131 -0.38216,-0.259342 -0.85431,-0.471529 -1.04922,-0.471529 -0.19491,0 -0.4056,-0.08288 -0.46821,-0.184178 -0.0626,-0.1013 -0.74004,-0.600486 -1.50541,-1.109304 -0.76537,-0.508818 -1.58375,-1.112003 -1.81864,-1.34041 -0.23489,-0.228409 -0.73992,-0.684614 -1.12226,-1.013788 -0.74523,-0.641573 -2.52707,-2.737678 -3.33192,-3.91955 -0.27049,-0.397202 -0.69099,-0.972307 -0.93444,-1.278008 -0.24344,-0.305701 -0.44423,-0.631566 -0.44619,-0.724145 -0.002,-0.09258 -0.26754,-0.557874 -0.59017,-1.033991 -0.32261,-0.476118 -0.58659,-1.008576 -0.58659,-1.183241 0,-0.174665 -0.18228,-0.657669 -0.40506,-1.073343 -0.28956,-0.54024 -0.48521,-1.521175 -0.68606,-3.43971 -0.15454,-1.476161 -0.3345,-3.170821 -0.39989,-3.765901 -0.0654,-0.59509 -0.0226,-1.92296 0.0951,-2.95082 0.11769,-1.02787 0.2984,-2.59394 0.40157,-3.48015 0.10317,-0.88621 0.35714,-1.94851 0.56437,-2.36066 0.20724,-0.41215 0.43537,-1.07243 0.50696,-1.4673 0.0716,-0.39486 0.2602,-0.82585 0.41913,-0.95776 0.15894,-0.1319 0.39149,-0.58199 0.51679,-1.0002 0.1253,-0.41821 0.39128,-0.90832 0.59107,-1.08912 0.19979,-0.18081 0.36325,-0.44177 0.36325,-0.57992 0,-0.31875 2.94659,-3.83495 3.56748,-4.25712 0.25592,-0.17401 0.83689,-0.65563 1.29106,-1.07027 1.1057,-1.00949 1.94706,-1.63914 2.19027,-1.63914 0.10983,0 0.45587,-0.21557 0.76899,-0.47903 0.31311,-0.26347 0.80315,-0.53773 1.08899,-0.60947 0.28583,-0.0717 0.62246,-0.25426 0.74806,-0.40559 0.1256,-0.15134 0.67509,-0.40783 1.2211,-0.56998 0.54601,-0.16214 1.13294,-0.41678 1.3043,-0.56586 0.17135,-0.14908 0.64794,-0.33138 1.05908,-0.40509 0.41114,-0.0737 1.15465,-0.35051 1.65225,-0.61508 0.4976,-0.26458 1.15384,-0.48105 1.45831,-0.48105 0.30447,0 1.01244,-0.18087 1.57326,-0.40192 0.56083,-0.22106 1.67695,-0.48526 2.48027,-0.58711 0.80333,-0.10185 1.87479,-0.32762 2.38104,-0.50172 0.53323,-0.18337 2.12045,-0.39018 3.77292,-0.49161 1.56885,-0.0963 3.64918,-0.28607 4.62295,-0.4217 2.27501,-0.31689 10.58431,-0.31018 13.18033,0.0106 1.08196,0.13371 3.42786,0.32691 5.21311,0.42933 1.78525,0.10243 3.82131,0.32544 4.5246,0.49559 0.70327,0.17015 2.16392,0.38927 3.2459,0.48693 3.14901,0.28423 4.73592,1.01892 4.23253,1.95953 -0.12378,0.23129 -0.31173,0.95866 -0.41764,1.61639 -0.10594,0.65772 -0.32767,1.45705 -0.49275,1.77628 -0.16507,0.31924 -0.38486,1.12627 -0.4884,1.79342 -0.10354,0.66715 -0.35256,1.61136 -0.55336,2.09825 -0.20081,0.48688 -0.42778,1.32266 -0.50437,1.85727 -0.0766,0.53462 -0.3004,1.38081 -0.49732,1.88043 -0.19694,0.49962 -0.42179,1.34581 -0.49967,1.88043 -0.0779,0.53462 -0.27285,1.23034 -0.43327,1.54605 -0.16041,0.31571 -0.40639,1.23465 -0.5466,2.0421 -0.26335,1.51654 -0.64971,2.14785 -1.37293,2.24336 -0.21638,0.0286 -1.45574,-0.0793 -2.7541,-0.23983 -1.78211,-0.22027 -4.62661,-0.29178 -11.60655,-0.29178 -8.24737,0 -9.31474,0.0354 -9.88327,0.3282 -0.35055,0.18051 -0.92302,0.39093 -1.27215,0.46762 -1.41598,0.311 -2.95843,2.12469 -2.96192,3.48277 -0.002,0.87416 0.86381,2.24931 1.61972,2.57186 0.27369,0.11679 0.72774,0.36811 1.009,0.55851 0.36765,0.24887 1.20796,0.40274 2.9896,0.54741 1.36302,0.11068 2.88834,0.29315 3.38961,0.40549 0.50128,0.11233 2.6128,0.32246 4.69228,0.46694 2.07948,0.14448 3.97095,0.36441 4.20326,0.48874 0.2323,0.124323 1.10379,0.356421 1.93662,0.515769 0.83284,0.159348 1.70987,0.417897 1.94896,0.574552 0.23908,0.156655 0.75232,0.344416 1.14053,0.417242 0.3882,0.07283 0.99375,0.344841 1.34566,0.604474 0.35192,0.259633 0.74864,0.47206 0.88161,0.47206 0.13298,0 0.49201,0.206245 0.79785,0.458323 0.30584,0.252077 0.71989,0.518286 0.92011,0.591577 0.65155,0.238501 1.50682,0.974542 4.03753,3.47469 1.4183,1.401158 2.78412,2.951747 3.17492,3.60438 0.3772,0.629951 0.92764,1.515196 1.22322,1.967213 0.29557,0.452018 0.53902,0.964829 0.54098,1.139583 0.002,0.174753 0.1721,0.531968 0.37806,0.79381 0.20597,0.261842 0.47877,0.863317 0.60621,1.336613 0.12744,0.473296 0.35628,1.050651 0.50853,1.283012 0.15224,0.232362 0.40146,1.136479 0.55381,2.009153 0.15235,0.872673 0.39652,1.79712 0.54262,2.054327 0.19236,0.338668 0.28392,1.581586 0.332,4.506516 0.0607,3.691845 0.0307,4.144705 -0.34857,5.270667 -0.22822,0.677491 -0.46745,1.648523 -0.53161,2.157854 -0.0642,0.509329 -0.27949,1.212429 -0.47852,1.562443 -0.19903,0.350013 -0.46268,1.010833 -0.58592,1.468486 -0.12324,0.457654 -0.39257,1.046331 -0.59855,1.308173 -0.20596,0.261842 -0.37448,0.614298 -0.37448,0.783236 0,0.168936 -0.20802,0.621754 -0.46226,1.006257 -0.25426,0.384504 -0.73609,1.141722 -1.07078,1.682705 -0.7133,1.153029 -0.98068,1.485455 -2.74757,3.415897 -1.3633,1.489493 -4.18643,3.961153 -4.52445,3.961153 -0.10451,0 -0.51172,0.255667 -0.90494,0.568149 -0.3932,0.31248 -1.01616,0.624659 -1.38433,0.693729 -0.36818,0.06907 -0.77364,0.251162 -0.90102,0.40465 -0.12738,0.153486 -0.73382,0.382558 -1.34763,0.50905 -0.61381,0.12649 -1.35383,0.352015 -1.64445,0.501169 -0.29064,0.149152 -1.44145,0.407121 -2.55739,0.573264 -1.11592,0.166143 -2.60436,0.430308 -3.30764,0.587034 -1.55027,0.345474 -15.51585,0.53053 -22.91802,0.303683 z m 144.9246,-0.04893 c -0.35222,-0.352208 -0.34248,-80.592903 0.01,-81.073043 0.22862,-0.31158 1.54912,-0.3351 18.79787,-0.33473 l 18.55197,4.2e-4 0.50817,0.60392 c 0.41422,0.49227 2.38157,4.16572 3.73497,6.97392 0.15643,0.32459 0.36911,0.72296 0.47262,0.88525 0.10352,0.1623 0.32137,0.60492 0.4841,0.98361 0.16274,0.37869 0.38443,0.82131 0.49262,0.9836 0.1082,0.1623 0.41578,0.73771 0.68349,1.27869 0.26772,0.54099 0.57325,1.1164 0.67899,1.27869 0.10571,0.1623 0.33033,0.60492 0.49916,0.98361 0.38591,0.86566 0.8472,1.78055 1.09107,2.16393 0.10324,0.1623 0.33071,0.60492 0.50546,0.98361 0.17475,0.37869 0.39773,0.82131 0.49548,0.98361 0.0978,0.16229 0.36529,0.69344 0.59447,1.18032 0.2292,0.48689 0.5811,1.09637 0.78199,1.3544 0.20091,0.25804 0.36527,0.62233 0.36527,0.80954 0,0.18721 0.1802,0.56947 0.40047,0.84948 0.22025,0.28 0.49808,0.80096 0.61741,1.15768 0.11933,0.35672 0.37217,0.82562 0.56191,1.04202 0.18972,0.21639 0.40379,0.67197 0.47569,1.01239 0.0719,0.34042 0.29402,0.76669 0.49358,0.94728 0.19953,0.18059 0.41756,0.62024 0.48448,0.977 0.067,0.35676 0.292,0.80278 0.50015,0.99114 0.20813,0.18837 0.43316,0.591613 0.50002,0.896088 0.0669,0.304476 0.29562,0.754246 0.50831,0.999486 0.2127,0.245241 0.44225,0.667084 0.5101,0.937427 0.0678,0.270342 0.331,0.79752 0.58479,1.171503 0.25381,0.373983 0.46145,0.788465 0.46145,0.921071 0,0.132605 0.16289,0.452219 0.36197,0.710252 0.19906,0.258034 0.46574,0.773241 0.5926,1.144904 0.12687,0.371662 0.35117,0.814285 0.49844,0.983607 0.14726,0.16932 0.37613,0.645313 0.50862,1.057761 0.21291,0.662838 0.76149,1.118809 1.34626,1.118988 0.0741,2.2e-5 0.10926,-8.433793 0.0781,-18.741817 -0.0566,-18.73924 -0.0566,-18.74191 0.35193,-19.18037 l 0.40853,-0.43852 h 12.86151 c 7.07382,0 12.99552,-0.0514 13.15935,-0.11431 0.19747,-0.0758 0.40185,0.0867 0.60626,0.48204 0.27706,0.53577 0.30838,4.66009 0.30838,40.608407 0,38.724759 -0.0118,40.022697 -0.36506,40.342432 -0.33735,0.305308 -1.79714,0.32627 -19.24851,0.276391 -19.97644,-0.0571 -19.53397,-0.03614 -19.53397,-0.925087 0,-0.182125 -0.21667,-0.624823 -0.4815,-0.983772 -0.26482,-0.35895 -0.53608,-0.901179 -0.60281,-1.204954 -0.0667,-0.303775 -0.24388,-0.654039 -0.39368,-0.778367 -0.1498,-0.124328 -0.37633,-0.550938 -0.50339,-0.94802 -0.12706,-0.397084 -0.38626,-0.899018 -0.576,-1.115412 -0.18974,-0.216393 -0.44894,-0.718327 -0.576,-1.115411 -0.12706,-0.397082 -0.35359,-0.823692 -0.50339,-0.94802 -0.1498,-0.124328 -0.32955,-0.486417 -0.39944,-0.804643 -0.0699,-0.318229 -0.2412,-0.692701 -0.38066,-0.832165 -0.13947,-0.139466 -0.67237,-1.090194 -1.18422,-2.112732 -0.51187,-1.022538 -1.62279,-3.187029 -2.46875,-4.80998 -0.84595,-1.622951 -1.9154,-3.703279 -2.37657,-4.622951 -0.46116,-0.919672 -0.99939,-1.88325 -1.19603,-2.141284 -0.19666,-0.258033 -0.35756,-0.62747 -0.35756,-0.820971 0,-0.193501 -0.22131,-0.614835 -0.4918,-0.936295 -0.2705,-0.321462 -0.49181,-0.714262 -0.49181,-0.872888 0,-0.158626 -0.22021,-0.612897 -0.48934,-1.009487 -0.26914,-0.396592 -0.54339,-0.936463 -0.60946,-1.199711 -0.0661,-0.263251 -0.23971,-0.577873 -0.38585,-0.699162 -0.14615,-0.12129 -0.36966,-0.545413 -0.49672,-0.942495 -0.12707,-0.397084 -0.38491,-0.899019 -0.57298,-1.115412 -0.18808,-0.216394 -0.43959,-0.685302 -0.55892,-1.042021 -0.11933,-0.356719 -0.39716,-0.877674 -0.61741,-1.157678 -0.22027,-0.280005 -0.40047,-0.660665 -0.40047,-0.845911 0,-0.185247 -0.17738,-0.541346 -0.39421,-0.791329 -0.2168,-0.249986 -0.48578,-0.794678 -0.59773,-1.210429 -0.11196,-0.41575 -0.29288,-0.755911 -0.40208,-0.755911 -0.1092,0 -0.41561,-0.234238 -0.68093,-0.520529 l -0.48242,-0.52053 -0.003,0.569711 c -0.002,0.313339 0,8.685889 0.003,18.605664 l 0.006,18.035958 -0.44016,0.308305 c -0.38888,0.272379 -1.95505,0.308308 -13.43902,0.308308 -9.84792,0 -13.05608,-0.05722 -13.23492,-0.236066 z m 97.97184,0.0046 c -0.35717,-0.357161 -0.35113,-80.591503 0.006,-81.080033 0.22947,-0.31383 1.30875,-0.33729 15.39345,-0.33453 l 15.14665,0.003 0.44262,0.50462 0.44263,0.50462 v 39.997739 c 0,36.961227 -0.0247,40.018227 -0.32522,40.267721 -0.45492,0.377638 -30.73224,0.510899 -31.10622,0.136908 z"
         id="path2100-3" />
      <path
         style="fill:#ffffff;stroke-width:0.196721"
         d="m 521.43138,0.00370399 c -0.81147,-0.08834 -1.71497,-0.254964 -2.00776,-0.37028 -0.2928,-0.115314 -1.28238,-0.340578 -2.19908,-0.500585 -0.9167,-0.16000699 -1.91648,-0.41848299 -2.22175,-0.57439099 -0.30526,-0.155908 -0.99764,-0.378866 -1.53862,-0.495462 -0.54099,-0.116597 -1.33429,-0.392935 -1.76291,-0.614088 -0.42861,-0.221152 -0.90245,-0.402094 -1.05297,-0.402094 -0.25139,0 -1.1993,-0.439165 -2.69232,-1.247337 -0.52581,-0.284624 -1.16069,-0.588638 -2.06558,-0.989101 -0.16229,-0.07183 -0.69344,-0.394466 -1.18032,-0.716979 -0.48689,-0.32251 -1.16808,-0.718589 -1.51377,-0.880174 -0.34569,-0.161585 -0.84408,-0.493818 -1.10756,-0.738297 -0.26347,-0.244477 -1.12402,-0.887129 -1.91234,-1.428112 -1.30375,-0.894703 -7.47502,-6.823116 -8.30413,-7.977345 -0.1903,-0.264919 -0.55338,-0.747246 -0.80684,-1.071836 -0.25347,-0.32459 -0.57657,-0.811475 -0.71801,-1.081967 -0.14145,-0.270492 -0.42017,-0.60748 -0.61939,-0.748859 -0.19923,-0.141382 -0.36384,-0.362693 -0.36581,-0.491804 -0.004,-0.235682 -0.82713,-1.578619 -1.53128,-2.497042 -0.20739,-0.270492 -0.44594,-0.713115 -0.53013,-0.983607 -0.0842,-0.270492 -0.31793,-0.702923 -0.51944,-0.960956 -0.20151,-0.258033 -0.36672,-0.56787 -0.36713,-0.688525 -4e-4,-0.120655 -0.26564,-0.750519 -0.58942,-1.399699 -0.32378,-0.649181 -0.58902,-1.293927 -0.58942,-1.432769 -4e-4,-0.138844 -0.22206,-0.68918 -0.49255,-1.222969 -0.27049,-0.53379 -0.49457,-1.17265 -0.49795,-1.419691 -0.003,-0.247038 -0.22389,-0.891785 -0.49001,-1.432768 -0.26612,-0.540984 -0.48466,-1.317785 -0.48565,-1.726226 -9.8e-4,-0.408441 -0.18139,-1.249424 -0.4009,-1.868852 -0.98108,-2.768527 -1.05884,-15.762318 -0.10794,-18.038124 0.17079,-0.408763 0.40097,-1.309375 0.51152,-2.00136 0.11054,-0.691988 0.364,-1.632708 0.56324,-2.090488 0.19923,-0.45778 0.51541,-1.27495 0.70261,-1.81593 0.18721,-0.54099 0.47829,-1.38197 0.64685,-1.86886 0.16856,-0.48688 0.43007,-1.02969 0.58113,-1.20624 0.15106,-0.17654 0.36227,-0.63831 0.46936,-1.02615 0.10709,-0.38783 0.32737,-0.83782 0.48953,-0.99997 0.16215,-0.16216 0.43056,-0.61971 0.59647,-1.01678 0.16591,-0.39707 0.45868,-0.95345 0.65059,-1.2364 0.19192,-0.28295 0.60624,-0.91282 0.92071,-1.3997 0.31446,-0.48689 1.03221,-1.50492 1.59498,-2.2623 0.56278,-0.75737 1.18245,-1.59518 1.37705,-1.86178 0.6845,-0.93776 5.937,-6.01843 7.22711,-6.99068 0.71784,-0.54098 1.58961,-1.21477 1.93725,-1.49731 0.5894,-0.47901 1.21462,-0.86481 2.47652,-1.52814 0.28392,-0.14925 0.69327,-0.42678 0.90966,-0.61674 0.2164,-0.18995 0.61476,-0.41192 0.88525,-0.49326 0.27049,-0.0813 0.74204,-0.35709 1.04788,-0.61278 0.30585,-0.25568 0.68667,-0.46488 0.84628,-0.46488 0.1596,0 0.61757,-0.17137 1.01769,-0.38083 1.4526,-0.7604 2.90992,-1.37861 3.75889,-1.59454 0.47711,-0.12135 1.05252,-0.34173 1.27869,-0.48974 0.22618,-0.14801 0.80959,-0.33148 1.29647,-0.40773 0.48689,-0.0762 1.44055,-0.34629 2.11925,-0.6001 0.6787,-0.25382 1.58158,-0.46149 2.00641,-0.46149 0.42482,0 1.72854,-0.19359 2.89715,-0.4302 2.79309,-0.56553 8.72834,-0.62077 11.17392,-0.104 0.86557,0.1829 2.32623,0.41879 3.2459,0.52418 0.91967,0.1054 2.13784,0.37209 2.70703,0.59263 0.56919,0.22055 1.27739,0.40186 1.57377,0.40292 0.29638,0.001 1.01242,0.22237 1.59119,0.4918 0.57878,0.26944 1.22616,0.48988 1.43863,0.48988 0.21247,0 0.97827,0.27401 1.70178,0.60891 1.42117,0.65782 3.10394,1.43145 3.57776,1.64482 0.1623,0.0731 0.70083,0.37048 1.19674,0.66089 0.49591,0.2904 1.29263,0.73908 1.77049,0.99706 0.47786,0.25797 0.9131,0.53333 0.9672,0.61189 0.0541,0.0786 0.36394,0.29175 0.68853,0.47374 2.07504,1.16345 6.47303,5.06454 8.83821,7.83965 2.27973,2.67485 2.95097,3.5527 3.26695,4.27252 0.11746,0.26759 0.3432,0.62169 0.50165,0.78689 0.15845,0.1652 0.48665,0.61019 0.72933,0.98888 0.60187,0.93919 2.89336,5.57483 2.89336,5.8532 0,0.12339 0.22131,0.64057 0.49181,1.1493 0.27049,0.50872 0.4918,1.08003 0.4918,1.26956 0,0.18954 0.22045,0.81816 0.48988,1.39693 0.26944,0.57878 0.49075,1.34169 0.4918,1.69536 9.9e-4,0.353672 0.22324,1.276482 0.49373,2.050689 0.29372,0.8407 0.49322,1.849422 0.49533,2.504502 0.002,0.60327 0.13314,1.937837 0.29156,2.965706 0.33331,2.162744 0.3757,5.978304 0.0885,7.965842 -0.10934,0.756624 -0.27899,2.350066 -0.37701,3.540984 -0.098,1.190917 -0.32391,2.511803 -0.50197,2.935298 -0.17806,0.423496 -0.40884,1.298424 -0.51286,1.944286 -0.10401,0.645859 -0.32552,1.43807 -0.49223,1.760465 -0.16672,0.322394 -0.43178,1.0801 -0.58902,1.683789 -0.15724,0.603686 -0.37249,1.201955 -0.47833,1.329486 -0.10584,0.12753 -0.32411,0.675273 -0.48505,1.217207 -0.16094,0.541936 -0.41943,1.090583 -0.57443,1.219222 -0.155,0.128638 -0.34132,0.515474 -0.41406,0.859638 -0.0727,0.344162 -0.28956,0.8028 -0.48184,1.019194 -0.19227,0.216393 -0.41614,0.614754 -0.49748,0.885246 -0.0813,0.270491 -0.33495,0.726663 -0.56359,1.013714 -0.22864,0.287052 -0.68128,0.984583 -1.00587,1.55007 -0.32459,0.565485 -0.72295,1.174056 -0.88525,1.352378 -0.16229,0.178322 -0.53745,0.694484 -0.83368,1.147025 -1.33763,2.043477 -5.25886,6.11246 -7.82205,8.116805 -1.59041,1.243648 -3.03383,2.301122 -3.49919,2.563546 -0.29348,0.165504 -0.78326,0.467459 -1.08839,0.671014 -0.73935,0.493222 -1.47915,0.893058 -3.478,1.879724 -0.91967,0.453968 -1.99402,0.99396 -2.38744,1.199986 -0.39342,0.206024 -0.8275,0.374591 -0.96462,0.374591 -0.13713,0 -0.70048,0.211456 -1.25191,0.4699 -0.55142,0.258447 -1.39901,0.535214 -1.88353,0.61504 -0.48453,0.07982 -1.07343,0.271251 -1.30867,0.425388 -0.23525,0.154139 -1.0339,0.371199 -1.77479,0.48235699 -0.74089,0.111159 -1.92248,0.382766 -2.62576,0.603574 -1.14598,0.359801 -1.89118,0.407683 -7.18033,0.461363 -3.2459,0.03294 -6.56557,-0.01239 -7.37705,-0.100722 z m 4.01761,-28.56732299 c 0.33294,-0.102521 1.15821,-0.26037 1.83394,-0.350775 1.3936,-0.186445 2.76158,-0.679545 5.13534,-1.851067 2.66873,-1.317109 2.98033,-1.493198 2.98033,-1.684224 0,-0.100055 0.17562,-0.237657 0.39027,-0.305784 1.00923,-0.320317 4.48822,-3.723106 5.81424,-5.686892 0.82758,-1.225606 1.29703,-2.014159 1.5924,-2.674771 0.16931,-0.378689 0.42358,-0.821312 0.56503,-0.983607 0.14146,-0.162295 0.35912,-0.693442 0.48369,-1.180328 0.12458,-0.486885 0.39838,-1.394614 0.60847,-2.017176 0.30618,-0.907359 0.38196,-1.679359 0.38196,-3.891173 0,-2.500454 -0.0461,-2.868837 -0.4918,-3.927717 -0.27049,-0.642659 -0.4918,-1.257076 -0.4918,-1.365369 0,-0.294807 -1.19578,-1.963101 -1.86886,-2.607331 -0.52087,-0.49856 -0.85207,-0.74272 -2.06557,-1.52278 -1.92377,-1.23663 -5.43634,-1.71765 -9.55396,-1.30834 -1.5628,0.15535 -2.75806,0.3736 -3.04919,0.55677 -0.26335,0.16569 -0.82529,0.36218 -1.24876,0.43665 -0.69728,0.12263 -1.94934,0.65539 -3.26285,1.38838 -0.27049,0.15095 -0.82377,0.42054 -1.22951,0.5991 -0.40573,0.17856 -0.7377,0.40238 -0.7377,0.49738 0,0.095 -0.28771,0.307393 -0.63934,0.471995 -0.96561,0.451997 -1.6635,1.019841 -3.50709,2.853545 -2.14411,2.132619 -3.44259,3.687477 -3.80619,4.557683 -0.15782,0.377713 -0.42485,0.801201 -0.59339,0.941082 -0.16855,0.13988 -0.30645,0.357558 -0.30645,0.483728 0,0.126171 -0.18306,0.580085 -0.4068,1.0087 -0.35787,0.685568 -0.6408,1.561363 -1.3639,4.221923 -0.10292,0.378688 -0.18924,1.62322 -0.19182,2.765626 -0.004,1.815291 0.0683,2.277 0.5741,3.663034 0.31834,0.872262 0.80473,1.92937 1.08087,2.349128 0.90677,1.378369 2.51253,2.829918 3.45509,3.123271 0.27049,0.08419 0.69997,0.315608 0.95439,0.514275 0.25441,0.198667 0.78556,0.411419 1.18032,0.472784 0.39476,0.06136 1.2489,0.237958 1.89808,0.392432 0.64918,0.154471 1.40164,0.319444 1.67213,0.366602 0.69083,0.120446 3.48827,-0.08317 4.21433,-0.306754 z M 752.874,-0.00125701 c -0.97377,-0.0911 -2.13403,-0.297273 -2.57834,-0.458148 -0.44432,-0.160875 -1.41809,-0.355657 -2.16394,-0.432846 -0.74585,-0.07719 -1.71018,-0.29706899 -2.14296,-0.48861399 -0.43279,-0.191546 -1.18525,-0.412978 -1.67213,-0.492069 -0.48689,-0.07909 -1.1992,-0.302855 -1.58292,-0.497249 -0.38373,-0.194394 -1.04766,-0.413372 -1.47541,-0.486616 -0.42775,-0.07325 -1.00076,-0.289501 -1.27334,-0.480568 -0.2726,-0.19107 -0.71522,-0.411181 -0.98361,-0.489136 -0.54318,-0.157765 -2.71603,-1.231883 -4.22571,-2.088915 -0.54098,-0.307111 -1.35,-0.732659 -1.79783,-0.945661 -0.44782,-0.213002 -0.84618,-0.46103 -0.88525,-0.551172 -0.039,-0.09014 -0.60216,-0.514178 -1.25134,-0.942301 -0.64918,-0.42812 -1.32783,-0.915006 -1.50813,-1.081967 -0.18029,-0.166959 -0.84423,-0.7451 -1.47541,-1.284757 -2.13549,-1.825822 -5.08467,-4.934652 -6.164,-6.497662 -0.2705,-0.39171 -0.69099,-0.96232 -0.93443,-1.268021 -0.24344,-0.305701 -0.44262,-0.639977 -0.44262,-0.742835 0,-0.102858 -0.16897,-0.339921 -0.37547,-0.526808 -0.20651,-0.186885 -0.48641,-0.621098 -0.62201,-0.964914 -0.13558,-0.343818 -0.39834,-0.802173 -0.58391,-1.018566 -0.18554,-0.216394 -0.44132,-0.718328 -0.56838,-1.115412 -0.12707,-0.397082 -0.35359,-0.823692 -0.50339,-0.94802 -0.14981,-0.124328 -0.33187,-0.507637 -0.4046,-0.851801 -0.0727,-0.344162 -0.28782,-0.891325 -0.47801,-1.215915 -0.19017,-0.32459 -0.44955,-1.018875 -0.57638,-1.542852 -0.12682,-0.523979 -0.35349,-1.143651 -0.50368,-1.377049 -0.1502,-0.2334 -0.33228,-0.77846 -0.40464,-1.211246 -0.0723,-0.432787 -0.34446,-1.421428 -0.6047,-2.196978 -0.26026,-0.775552 -0.47319,-1.798641 -0.47319,-2.27353 0,-0.474891 -0.18107,-1.832152 -0.40236,-3.016137 -0.51991,-2.781671 -0.57594,-8.175382 -0.11227,-10.808438 0.17149,-0.973771 0.39931,-2.617128 0.5063,-3.651905 0.10698,-1.034776 0.33412,-2.215529 0.50475,-2.623895 0.17062,-0.408364 0.40236,-1.240888 0.51498,-1.850053 0.1126,-0.60916 0.36293,-1.42021 0.55627,-1.80233 0.19334,-0.38212 0.4177,-1.0046 0.49857,-1.38329 0.0809,-0.37869 0.3096,-0.99836 0.50829,-1.37705 0.19871,-0.37869 0.4065,-0.91564 0.46178,-1.19323 0.0553,-0.27759 0.27455,-0.70536 0.48724,-0.9506 0.2127,-0.24524 0.44142,-0.69501 0.50831,-0.99949 0.0669,-0.30447 0.29362,-0.70927 0.50388,-0.89956 0.21026,-0.19028 0.38229,-0.44743 0.38229,-0.57144 0,-0.19134 0.69629,-1.30221 1.96721,-3.13853 1.02077,-1.47487 3.20756,-3.94047 4.79772,-5.40939 0.42071,-0.38864 1.12448,-1.04864 1.56391,-1.46667 0.43944,-0.41803 1.11325,-0.97036 1.49737,-1.22741 1.43341,-0.95923 1.69367,-1.14518 2.17379,-1.55318 0.27049,-0.22985 0.71311,-0.5226 0.98361,-0.65054 0.27049,-0.12794 0.93442,-0.49137 1.47541,-0.80762 0.54098,-0.31626 1.73606,-0.93964 2.65573,-1.38529 0.91967,-0.44566 1.98197,-0.97307 2.36066,-1.17203 0.37869,-0.19896 0.99836,-0.4258 1.37705,-0.50409 0.37869,-0.0783 0.90771,-0.28158 1.1756,-0.45177 0.2679,-0.17019 0.9761,-0.42198 1.57377,-0.55953 0.59768,-0.13755 1.57358,-0.42935 2.16866,-0.64844 0.59508,-0.21909 1.35814,-0.40124 1.69568,-0.40477 0.33755,-0.004 1.17625,-0.18613 1.86378,-0.40576 0.68752,-0.21964 2.31464,-0.48642 3.61579,-0.59284 1.30116,-0.10642 2.85262,-0.27959 3.4477,-0.38484 0.59508,-0.10524 2.85246,-0.24764 5.01639,-0.31646 3.41082,-0.10846 4.32166,-0.0695 6.84402,0.29238 1.60029,0.22962 3.41504,0.41756 4.03278,0.41763 0.61777,8e-5 1.91993,0.21283 2.8937,0.47277 0.97377,0.25995 2.3348,0.5311 3.02455,0.60257 0.68972,0.0715 1.66349,0.28955 2.16393,0.48463 0.50042,0.19507 1.32313,0.41508 1.82821,0.4889 0.5051,0.0738 1.00538,0.24053 1.11175,0.37047 0.2392,0.29221 -0.21232,2.82663 -0.65667,3.68591 -0.16863,0.32611 -0.39866,1.09088 -0.51116,1.69949 -0.11253,0.6086 -0.37468,1.42394 -0.58259,1.81186 -0.20792,0.38792 -0.37997,0.97219 -0.38235,1.29838 -0.002,0.32619 -0.18006,0.98041 -0.39486,1.4538 -0.2148,0.4734 -0.52513,1.44104 -0.68961,2.1503 -0.1645,0.70927 -0.38311,1.39084 -0.48584,1.5146 -0.10271,0.12377 -0.32363,0.87576 -0.49094,1.6711 -0.16731,0.79534 -0.39143,1.55119 -0.49804,1.67966 -0.10662,0.12847 -0.28969,0.75193 -0.4068,1.38547 -0.11713,0.63354 -0.37133,1.46454 -0.5649,1.84666 -0.19358,0.38212 -0.41744,1.09313 -0.49747,1.58001 -0.08,0.48689 -0.30352,1.19716 -0.49664,1.57839 -0.19312,0.38123 -0.41546,1.13369 -0.49409,1.67213 -0.0786,0.53845 -0.29579,1.28883 -0.48262,1.66752 -0.18682,0.37869 -0.40361,0.953598 -0.48177,1.277584 -0.28036,1.16235 -0.70023,1.196414 -1.88095,0.152609 -0.54631,-0.482961 -1.66837,-1.221893 -2.16393,-1.425053 -0.27049,-0.1109 -0.62459,-0.29085 -0.78689,-0.39989 -0.45452,-0.3054 -0.94705,-0.49821 -2.69966,-1.05684 -2.26391,-0.7216 -5.16787,-0.73079 -7.52984,-0.0238 -0.9037,0.27049 -1.82668,0.49457 -2.05106,0.49796 -0.22438,0.003 -0.85058,0.22388 -1.39157,0.49 -0.54098,0.26612 -1.12133,0.48466 -1.28964,0.48565 -0.16834,9.9e-4 -0.60602,0.22311 -0.97265,0.493602 -0.36663,0.270491 -0.79956,0.491803 -0.96207,0.491803 -0.16251,0 -0.61007,0.208023 -0.99456,0.462271 -0.38451,0.254249 -1.14173,0.736983 -1.68272,1.072743 -1.16793,0.724867 -1.6966,1.115725 -2.58025,1.907609 -1.07807,0.966096 -2.88942,2.783514 -3.46887,3.480502 -1.11391,1.339837 -1.52475,1.892575 -1.52823,2.056094 -0.002,0.09258 -0.26754,0.557874 -0.59016,1.033991 -0.32262,0.476118 -0.58658,1.017458 -0.58658,1.202978 0,0.185522 -0.16423,0.54843 -0.36494,0.806463 -0.20072,0.258033 -0.42592,0.823251 -0.50046,1.256038 -0.0745,0.432787 -0.2737,1.373394 -0.44258,2.090241 -0.16889,0.716844 -0.26703,1.734877 -0.21809,2.262295 0.10432,1.124117 0.68963,3.583381 0.95396,4.00812 0.101,0.162295 0.35058,0.649181 0.55464,1.081967 0.42112,0.893123 2.01903,2.646034 3.04959,3.345386 1.05873,0.71848 3.54592,1.867729 4.04209,1.867729 0.24352,0 0.9867,0.146623 1.6515,0.32583 1.53783,0.414545 4.18768,0.412109 5.76169,-0.0053 0.6648,-0.176294 1.48633,-0.320534 1.82561,-0.320534 0.33929,0 1.12322,-0.21116 1.74209,-0.469247 0.61888,-0.258085 1.40681,-0.529349 1.75097,-0.602807 0.34417,-0.07346 0.73277,-0.262499 0.86355,-0.420087 0.13078,-0.157589 0.61834,-0.382347 1.08344,-0.499461 0.46511,-0.117116 0.99762,-0.380851 1.18334,-0.586078 0.18573,-0.205226 0.43462,-0.374751 0.5531,-0.37672 0.24236,-0.004 1.72932,-0.944081 2.47771,-1.566415 0.27049,-0.224927 0.7989,-0.649761 1.17427,-0.944073 1.01453,-0.795496 3.55656,-3.40193 3.95901,-4.059337 0.19309,-0.315374 0.62528,-0.688714 0.96046,-0.829645 0.5651,-0.23761 0.62122,-0.224528 0.77201,0.179965 0.0894,0.239909 0.22582,0.878823 0.30309,1.419807 0.0773,0.540983 0.2637,1.175575 0.41429,1.410202 0.15059,0.234628 0.40653,1.063259 0.56878,1.841404 0.16226,0.778143 0.3842,1.522285 0.49322,1.653646 0.10903,0.131362 0.33223,0.875893 0.49602,1.654512 0.16379,0.778621 0.42462,1.613005 0.57962,1.854185 0.15501,0.241181 0.37375,0.945323 0.48605,1.564761 0.11233,0.619436 0.32996,1.371895 0.48364,1.672131 0.15368,0.300234 0.34167,0.944241 0.41776,1.431126 0.0761,0.486886 0.31068,1.22532 0.52129,1.640967 0.21063,0.415647 0.43914,1.168106 0.50782,1.672131 0.0686,0.504026 0.33057,1.359034 0.582,1.900017 0.25143,0.540984 0.45803,1.252594 0.45907,1.581356 0.002,0.328763 0.17736,0.941863 0.39179,1.362445 0.21442,0.420582 0.47659,1.233818 0.58259,1.80719 0.10599,0.573372 0.32065,1.289926 0.47705,1.592343 0.15637,0.302418 0.37768,1.054877 0.4918,1.672132 0.1141,0.617254 0.34708,1.392263 0.51771,1.72224 0.17064,0.329976 0.40303,1.106771 0.51643,1.726208 0.11341,0.619438 0.38434,1.416456 0.60207,1.77115 0.3179,0.517885 0.34855,0.701922 0.15559,0.934427 -0.13216,0.15924 -0.34352,0.289526 -0.46969,0.289526 -0.12618,0 -0.5801,0.179715 -1.00871,0.399368 -0.42862,0.219653 -1.36877,0.523045 -2.08924,0.674203 -0.72047,0.151161 -1.56146,0.402248 -1.86885,0.557971 -0.3074,0.155725 -1.11179,0.343568 -1.78753,0.417433 -0.67574,0.07386 -1.54232,0.265365 -1.92573,0.425561 -0.38339,0.160194 -1.64526,0.416544 -2.80416,0.56966599 -1.15889,0.153122 -2.63821,0.424223 -3.28739,0.602449 -0.95803,0.263012 -2.40299,0.336332 -7.67213,0.389294 -3.57049,0.03589 -7.28853,-0.0093 -8.2623,-0.100398 z M 432.61171,-3.92722 c -3.04886,-0.09344 -5.2788,-0.258535 -6.29509,-0.466072 -0.86557,-0.176759 -2.90164,-0.410503 -4.52459,-0.519431 -1.62295,-0.108927 -3.24846,-0.284676 -3.61225,-0.390553 -0.36379,-0.105878 -1.33643,-0.286387 -2.16142,-0.401133 -0.82499,-0.114745 -1.60429,-0.317254 -1.73178,-0.450019 -0.26836,-0.279472 0.0693,-2.313508 0.57892,-3.487293 0.16441,-0.378688 0.36325,-1.131147 0.44186,-1.672131 0.0786,-0.540984 0.3036,-1.302732 0.49996,-1.692773 0.19637,-0.39004 0.41809,-1.186761 0.49271,-1.770492 0.0746,-0.583729 0.26287,-1.312834 0.41832,-1.620232 0.15546,-0.307399 0.41251,-1.181707 0.57123,-1.942907 0.15871,-0.761199 0.414,-1.626566 0.56731,-1.923037 0.15332,-0.296471 0.365,-1.074571 0.47041,-1.729108 0.10541,-0.654539 0.33529,-1.467832 0.51085,-1.80732 0.17555,-0.33949 0.37088,-1.077246 0.43407,-1.639462 0.18666,-1.66099 -0.081,-1.58844 5.27193,-1.429131 2.59781,0.07732 5.39556,0.217183 6.21723,0.310816 0.82166,0.09363 3.56592,0.230282 6.09836,0.303665 4.28412,0.124141 4.72262,0.104457 6.30344,-0.28297 0.93446,-0.229017 1.82731,-0.416394 1.98411,-0.416394 0.55143,0 2.08411,-1.393733 2.3995,-2.181972 0.39941,-0.998215 0.38673,-1.467897 -0.0666,-2.466114 -0.42433,-0.93444 -2.18985,-2.23716 -3.03193,-2.23716 -0.28388,0 -1.07144,-0.208312 -1.75013,-0.462917 -0.67871,-0.254605 -1.88145,-0.526094 -2.67276,-0.603311 -0.79132,-0.07721 -1.80935,-0.272215 -2.2623,-0.433332 -0.45294,-0.161114 -1.57599,-0.382404 -2.49567,-0.491754 -0.91967,-0.109349 -2.11475,-0.358629 -2.65573,-0.553955 -0.54099,-0.195325 -1.51383,-0.419762 -2.16188,-0.498748 -0.64805,-0.07898 -1.48904,-0.299671 -1.86885,-0.490412 -0.37982,-0.190741 -1.04468,-0.409525 -1.47747,-0.486185 -0.43279,-0.07666 -1.06366,-0.300508 -1.40194,-0.497436 -0.33828,-0.196929 -0.90107,-0.420873 -1.25065,-0.497651 -0.34957,-0.07678 -0.94827,-0.351789 -1.33043,-0.611131 -0.38216,-0.259342 -0.85431,-0.471529 -1.04922,-0.471529 -0.19491,0 -0.4056,-0.08288 -0.46821,-0.184178 -0.0626,-0.1013 -0.74004,-0.600486 -1.50541,-1.109304 -0.76537,-0.508818 -1.58376,-1.112003 -1.81865,-1.34041 -0.23489,-0.228409 -0.73991,-0.684614 -1.12226,-1.013788 -0.74523,-0.641573 -2.52707,-2.737678 -3.33192,-3.91955 -0.27049,-0.397202 -0.69098,-0.972307 -0.93443,-1.278008 -0.24344,-0.305701 -0.44423,-0.631566 -0.4462,-0.724145 -0.002,-0.09258 -0.26754,-0.557874 -0.59016,-1.033991 -0.32262,-0.476118 -0.58659,-1.008576 -0.58659,-1.183241 0,-0.174665 -0.18228,-0.657669 -0.40506,-1.073343 -0.28956,-0.54024 -0.48521,-1.521175 -0.68606,-3.43971 -0.15455,-1.476161 -0.3345,-3.170821 -0.39989,-3.765901 -0.0654,-0.59509 -0.0226,-1.92296 0.0951,-2.95082 0.11769,-1.02787 0.2984,-2.59394 0.40157,-3.48015 0.10317,-0.88621 0.35714,-1.94851 0.56437,-2.36066 0.20724,-0.41215 0.43537,-1.07243 0.50696,-1.4673 0.0716,-0.39486 0.2602,-0.82585 0.41913,-0.95776 0.15894,-0.1319 0.39149,-0.58199 0.51679,-1.0002 0.1253,-0.41821 0.39128,-0.90832 0.59107,-1.08912 0.19979,-0.18081 0.36325,-0.44177 0.36325,-0.57992 0,-0.31875 2.94659,-3.83495 3.56748,-4.25712 0.25592,-0.17401 0.83689,-0.65563 1.29106,-1.07027 1.1057,-1.00949 1.94706,-1.63914 2.19027,-1.63914 0.10983,0 0.45587,-0.21557 0.76899,-0.47903 0.31311,-0.26347 0.80315,-0.53773 1.08899,-0.60947 0.28583,-0.0717 0.62246,-0.25426 0.74806,-0.40559 0.1256,-0.15134 0.67509,-0.40783 1.2211,-0.56998 0.54601,-0.16214 1.13294,-0.41678 1.3043,-0.56586 0.17135,-0.14908 0.64794,-0.33138 1.05908,-0.40509 0.41114,-0.0737 1.15465,-0.35051 1.65225,-0.61508 0.4976,-0.26458 1.15384,-0.48105 1.45831,-0.48105 0.30447,0 1.01244,-0.18087 1.57326,-0.40192 0.56083,-0.22106 1.67695,-0.48526 2.48027,-0.58711 0.80333,-0.10185 1.87479,-0.32762 2.38104,-0.50172 0.53323,-0.18337 2.12045,-0.39018 3.77292,-0.49161 1.56885,-0.0963 3.64918,-0.28607 4.62295,-0.4217 2.27501,-0.31689 10.58431,-0.31018 13.18033,0.0106 1.08196,0.13371 3.42786,0.32691 5.21311,0.42933 1.78525,0.10243 3.82131,0.32544 4.52459,0.49559 0.70328,0.17015 2.16393,0.38927 3.2459,0.48693 3.14902,0.28423 4.73593,1.01892 4.23253,1.95953 -0.12378,0.23129 -0.31172,0.95866 -0.41764,1.61639 -0.10593,0.65772 -0.32766,1.45705 -0.49274,1.77628 -0.16508,0.31924 -0.38486,1.12627 -0.4884,1.79342 -0.10354,0.66715 -0.35256,1.61136 -0.55336,2.09825 -0.20081,0.48688 -0.42778,1.32266 -0.50437,1.85727 -0.0766,0.53462 -0.3004,1.38081 -0.49733,1.88043 -0.19693,0.49962 -0.42178,1.34581 -0.49966,1.88043 -0.0779,0.53462 -0.27285,1.23034 -0.43327,1.54605 -0.16041,0.31571 -0.40639,1.23465 -0.5466,2.0421 -0.26336,1.51654 -0.64971,2.14785 -1.37293,2.24336 -0.21639,0.0286 -1.45574,-0.0793 -2.7541,-0.23983 -1.78211,-0.22027 -4.62661,-0.29178 -11.60655,-0.29178 -8.24737,0 -9.31474,0.0354 -9.88327,0.3282 -0.35055,0.18051 -0.92302,0.39093 -1.27215,0.46762 -1.41598,0.311 -2.95843,2.12469 -2.96192,3.48277 -0.002,0.87416 0.86381,2.24931 1.61972,2.57186 0.27369,0.11679 0.72774,0.36811 1.009,0.55851 0.36765,0.24887 1.20796,0.40274 2.9896,0.54741 1.36302,0.11068 2.88834,0.29315 3.38961,0.40549 0.50128,0.11233 2.6128,0.32246 4.69228,0.46694 2.07948,0.14448 3.97095,0.36441 4.20326,0.48874 0.2323,0.124323 1.10379,0.356421 1.93662,0.515769 0.83284,0.159348 1.70987,0.417897 1.94896,0.574552 0.23908,0.156655 0.75232,0.344416 1.14053,0.417242 0.3882,0.07283 0.99375,0.344841 1.34566,0.604474 0.35192,0.259633 0.74864,0.47206 0.88161,0.47206 0.13298,0 0.49201,0.206245 0.79785,0.458323 0.30584,0.252077 0.71989,0.518286 0.92011,0.591577 0.65155,0.238501 1.50682,0.974542 4.03753,3.47469 1.41829,1.401158 2.78412,2.951747 3.17491,3.60438 0.3772,0.629951 0.92765,1.515196 1.22323,1.967213 0.29557,0.452018 0.53901,0.964829 0.54098,1.139583 0.002,0.174753 0.1721,0.531968 0.37806,0.79381 0.20597,0.261842 0.47876,0.863317 0.6062,1.336613 0.12745,0.473296 0.35629,1.050651 0.50854,1.283012 0.15224,0.232362 0.40146,1.136479 0.55381,2.009153 0.15235,0.872673 0.39652,1.79712 0.54261,2.054327 0.19236,0.338668 0.28393,1.581586 0.33201,4.506516 0.0607,3.691845 0.0307,4.144705 -0.34857,5.270667 -0.22823,0.677491 -0.46746,1.648523 -0.53161,2.157854 -0.0642,0.509329 -0.27949,1.212429 -0.47852,1.562443 -0.19903,0.350013 -0.46269,1.010833 -0.58593,1.468486 -0.12323,0.457654 -0.39257,1.046331 -0.59854,1.308173 -0.20596,0.261842 -0.37448,0.614298 -0.37448,0.783236 0,0.168936 -0.20802,0.621754 -0.46227,1.006257 -0.25425,0.384504 -0.73609,1.141722 -1.07077,1.682705 -0.7133,1.153029 -0.98068,1.485455 -2.74757,3.415897 -1.3633,1.489493 -4.18644,3.961153 -4.52445,3.961153 -0.10451,0 -0.51173,0.255667 -0.90494,0.568149 -0.39321,0.31248 -1.01616,0.624659 -1.38433,0.693729 -0.36818,0.06907 -0.77364,0.251162 -0.90102,0.40465 -0.12738,0.153486 -0.73382,0.382558 -1.34763,0.50905 -0.61382,0.12649 -1.35383,0.352015 -1.64446,0.501169 -0.29063,0.149152 -1.44145,0.407121 -2.55738,0.573264 -1.11592,0.166143 -2.60436,0.430308 -3.30764,0.587034 -1.55027,0.345474 -15.51586,0.53053 -22.91803,0.303683 z M 577.5363,-3.97615 c -0.35221,-0.352208 -0.34247,-80.592903 0.01,-81.073043 0.22862,-0.31158 1.54911,-0.3351 18.79787,-0.33473 l 18.55197,4.2e-4 0.50817,0.60392 c 0.41422,0.49227 2.38157,4.16572 3.73497,6.97392 0.15643,0.32459 0.36911,0.72296 0.47262,0.88525 0.10352,0.1623 0.32137,0.60492 0.4841,0.98361 0.16274,0.37869 0.38443,0.82131 0.49262,0.9836 0.1082,0.1623 0.41578,0.73771 0.68349,1.27869 0.26772,0.54099 0.57325,1.1164 0.67899,1.27869 0.10571,0.1623 0.33033,0.60492 0.49916,0.98361 0.38591,0.86566 0.8472,1.78055 1.09107,2.16393 0.10324,0.1623 0.33071,0.60492 0.50546,0.98361 0.17475,0.37869 0.39773,0.82131 0.49548,0.98361 0.0978,0.16229 0.36529,0.69344 0.59447,1.18032 0.2292,0.48689 0.5811,1.09637 0.78199,1.3544 0.20091,0.25804 0.36527,0.62233 0.36527,0.80954 0,0.18721 0.1802,0.56947 0.40047,0.84948 0.22025,0.28 0.49808,0.80096 0.61741,1.15768 0.11933,0.35672 0.37217,0.82562 0.56191,1.04202 0.18972,0.21639 0.40379,0.67197 0.47569,1.01239 0.0719,0.34042 0.29402,0.76669 0.49358,0.94728 0.19953,0.18059 0.41756,0.62024 0.48448,0.977 0.067,0.35676 0.292,0.80278 0.50015,0.99114 0.20813,0.18837 0.43316,0.591613 0.50002,0.896088 0.0669,0.304476 0.29562,0.754246 0.50831,0.999486 0.2127,0.245241 0.44225,0.667084 0.5101,0.937427 0.0678,0.270342 0.331,0.79752 0.58479,1.171503 0.25381,0.373983 0.46145,0.788465 0.46145,0.921071 0,0.132605 0.16289,0.452219 0.36197,0.710252 0.19906,0.258034 0.46574,0.773241 0.5926,1.144904 0.12687,0.371662 0.35117,0.814285 0.49844,0.983607 0.14726,0.16932 0.37613,0.645313 0.50862,1.057761 0.21291,0.662838 0.76149,1.118809 1.34626,1.118988 0.0741,2.2e-5 0.10926,-8.433793 0.0781,-18.741817 -0.0566,-18.73924 -0.0566,-18.74191 0.35193,-19.18037 l 0.40853,-0.43852 h 12.86151 c 7.07382,0 12.99552,-0.0514 13.15935,-0.11431 0.19747,-0.0758 0.40185,0.0867 0.60626,0.48204 0.27706,0.53577 0.30838,4.66009 0.30838,40.608407 0,38.724759 -0.0118,40.022697 -0.36506,40.342432 -0.33735,0.305308 -1.79714,0.32627 -19.24851,0.276391 -19.97644,-0.0571 -19.53397,-0.03614 -19.53397,-0.925087 0,-0.182125 -0.21667,-0.624823 -0.4815,-0.983772 -0.26482,-0.35895 -0.53608,-0.901179 -0.60281,-1.204954 -0.0667,-0.303775 -0.24388,-0.654039 -0.39368,-0.778367 -0.1498,-0.124328 -0.37633,-0.550938 -0.50339,-0.94802 -0.12706,-0.397084 -0.38626,-0.899018 -0.576,-1.115412 -0.18974,-0.216393 -0.44894,-0.718327 -0.576,-1.115411 -0.12706,-0.397082 -0.35359,-0.823692 -0.50339,-0.94802 -0.1498,-0.124328 -0.32955,-0.486417 -0.39944,-0.804643 -0.0699,-0.318229 -0.2412,-0.692701 -0.38066,-0.832165 -0.13947,-0.139466 -0.67237,-1.090194 -1.18422,-2.112732 -0.51187,-1.022538 -1.62279,-3.187029 -2.46875,-4.80998 -0.84595,-1.622951 -1.9154,-3.703279 -2.37657,-4.622951 -0.46116,-0.919672 -0.99939,-1.88325 -1.19603,-2.141284 -0.19666,-0.258033 -0.35756,-0.62747 -0.35756,-0.820971 0,-0.193501 -0.22131,-0.614835 -0.4918,-0.936295 -0.2705,-0.321462 -0.49181,-0.714262 -0.49181,-0.872888 0,-0.158626 -0.22021,-0.612897 -0.48934,-1.009487 -0.26914,-0.396592 -0.54339,-0.936463 -0.60946,-1.199711 -0.0661,-0.263251 -0.23971,-0.577873 -0.38585,-0.699162 -0.14615,-0.12129 -0.36966,-0.545413 -0.49672,-0.942495 -0.12707,-0.397084 -0.38491,-0.899019 -0.57298,-1.115412 -0.18808,-0.216394 -0.43959,-0.685302 -0.55892,-1.042021 -0.11933,-0.356719 -0.39716,-0.877674 -0.61741,-1.157678 -0.22027,-0.280005 -0.40047,-0.660665 -0.40047,-0.845911 0,-0.185247 -0.17738,-0.541346 -0.39421,-0.791329 -0.2168,-0.249986 -0.48578,-0.794678 -0.59773,-1.210429 -0.11196,-0.41575 -0.29288,-0.755911 -0.40208,-0.755911 -0.1092,0 -0.41561,-0.234238 -0.68093,-0.520529 l -0.48242,-0.52053 -0.003,0.569711 c -0.002,0.313339 0,8.685889 0.003,18.605664 l 0.006,18.035958 -0.44016,0.308305 c -0.38888,0.272379 -1.95505,0.308308 -13.43902,0.308308 -9.84792,0 -13.05608,-0.05722 -13.23492,-0.236066 z m 97.97184,0.0046 c -0.35717,-0.357161 -0.35113,-80.591503 0.006,-81.080033 0.22948,-0.31383 1.30875,-0.33729 15.39345,-0.33453 l 15.14665,0.003 0.44262,0.50462 0.44263,0.50462 v 39.997739 c 0,36.961227 -0.0247,40.018227 -0.32522,40.267721 -0.45492,0.377638 -30.73224,0.510899 -31.10622,0.136908 z"
         id="path2100" />
    </g>
    <path
       style="fill:#000000;stroke-width:0.196721"
       d="m 171.45102,86.374253 c -0.13437,-0.217422 0.17595,-0.452194 0.3576,-0.270541 0.18704,0.187041 0.15219,0.453669 -0.0593,0.453669 -0.10181,0 -0.23604,-0.08241 -0.29829,-0.183128 z m 84.4834,0.01049 c 0,-0.09495 0.13279,-0.282836 0.29508,-0.417529 0.24654,-0.204604 0.29509,-0.1762 0.29509,0.172635 0,0.23999 -0.12547,0.417529 -0.29509,0.417529 -0.16229,0 -0.29508,-0.07769 -0.29508,-0.172635 z m 13.57377,-0.134058 c 0,-0.16868 0.0885,-0.25198 0.19672,-0.185111 0.1082,0.06687 0.19672,0.204882 0.19672,0.306693 0,0.101811 -0.0885,0.185111 -0.19672,0.185111 -0.10819,0 -0.19672,-0.138012 -0.19672,-0.306693 z"
       id="path2078" />
    <g
       id="g48255"
       transform="matrix(0.7312464,0,0,0.7385253,97.390954,20.436059)"
       inkscape:export-filename="C:\xampp\htdocs\proyectos\InterfacesTP3\img\logo.png"
       inkscape:export-xdpi="161.12436"
       inkscape:export-ydpi="161.12436"
       style="fill:#ffffff">
      <path
         style="mix-blend-mode:normal;fill:#ffffff;fill-opacity:1;filter:url(#filter22703)"
         d="m 1079.2669,73.889045 c 26.6777,-9.13336 44.0374,-21.37642 51.2694,-36.15803 5.0641,-10.35061 3.3319,-24.19343 -3.8847,-31.04501 -5.0485,-4.79308 -7.046,-4.96814 -9.0374,-0.79204 -0.9226,1.93457 -3.517,5.51313 -5.7654,7.95235 -8.1699,8.86335 -18.7806,13.5452 -30.6981,13.5452 -5.8137,0 -6.7851,0.31541 -10.6006,3.4419 -7.1148,5.83006 -13.8134,7.22967 -17.1192,3.57686 -2.3141,-2.55705 -1.0457,-4.21362 5.9202,-7.73179 6.0039,-3.0323 9.9382,-5.95379 8.8463,-6.56899 -0.4309,-0.2428 -2.1335,-0.76374 -3.7835,-1.15763 -1.65,-0.3939 -3.8205,-1.45577 -4.8234,-2.35973 -2.5804,-2.32576 -10.6766,-4.31831 -10.6766,-2.62759 0,0.69512 1.575,2.23725 3.5,3.42697 3.614,2.23357 4.8455,3.76155 1.75,2.17137 -0.9625,-0.49445 -4.2868,-1.14754 -7.3875,-1.45132 -3.1006,-0.30377 -7.0906,-1.30381 -8.8668,-2.2223 -2.2141,-1.14496 -6.1007,-1.72972 -12.3625,-1.85999 -8.9833,-0.1869 -15.6332,-2.17336 -15.6332,-4.67 0,-0.53948 3.0375,-2.94195 6.75,-5.33881 10.3371,-6.67383 15.7065,-11.871305 17.1127,-16.564835 1.0969,-3.661303 0.9605,-4.8124 -1.3196,-11.133402 -3.4079,-9.447421 -3.4876,-18.25974 -0.2089,-23.091152 l 2.3341,-3.439522 -3.4297,-11.45002 c -3.4752,-11.60213 -5.313,-27.53283 -3.8491,-33.36548 1.2635,-5.034244 5.7752,-3.31965 15.6396,5.94352 4.8108,4.51761 11.8471,9.25782 12.3139,8.29567 10.8598,-22.383154 37.3743,-42.104974 67.157,-49.952344 8.0123,-2.11113 11.0852,-2.36468 28,-2.31035 16.3582,0.0525 20.1124,0.3668 27,2.26015 9.9251,2.72832 22.8959,8.85861 31.0403,14.67031 5.7872,4.12967 19.9602,18.341414 19.1247,19.176964 -0.2081,0.20809 -2.3553,-0.76061 -4.7716,-2.15265 -2.4163,-1.392044 -7.2533,-3.427574 -10.7487,-4.523404 -12.0129,-3.76606 -33.456,-1.98472 -44.5362,3.699754 l -3.5238,1.80784 16.2077,0.0456 c 14.851,0.0417 16.8772,0.26979 24.2076,2.72441 16.3186,5.46433 28.9832,15.74155 33.5604,27.23392 2.111,5.30037 2.3846,7.56249 2.3577,19.4961 -0.048,21.170973 -5.2268,38.487986 -16.4851,55.118831 -4.1525,6.13399 -24.8403,28.30715 -25.6529,27.4946 -0.2172,-0.21725 1.2383,-2.9482 3.2345,-6.06879 8.0559,-12.59336 11.9782,-25.60229 11.274,-37.391175 -0.6768,-11.327393 -5.8425,-20.352403 -15.8575,-27.704059 -4.3053,-3.160371 -13.6287,-7.085064 -14.5775,-6.13635 -0.1741,0.174152 1.9529,2.762458 4.7267,5.751789 6.0606,6.531517 12.536,19.193918 14.0299,27.43515 1.285,7.088845 0.5282,15.331625 -2.1126,23.007095 -11.7555,34.168 -48.1603,56.75788 -101.4914,62.977533 -7.1467,0.83346 -16.3717,1.4863 -20.5,1.45077 l -7.5062,-0.0646 z m -4.6529,-62.24753 c 0.3506,-0.9625 1.9416,-3.26249 3.5356,-5.11109 3.4467,-3.99706 5.0229,-7.74898 4.2622,-10.14568 -0.3042,-0.95843 -2.6782,-2.54751 -5.2755,-3.53128 -9.2188,-3.491775 -15.9431,-9.009558 -16.4464,-13.495508 -0.2136,-1.904259 0.2415,-2.534099 2.0146,-2.788079 2.1345,-0.30575 4.9725,0.99938 11.5628,5.31751 2.586,1.694379 2.6572,1.690149 2.0158,-0.11971 -1.1734,-3.31125 -8.5084,-12.307201 -13.2597,-16.262331 -9.0496,-7.533095 -14.0557,-8.784492 -18.8037,-4.700424 -2.4782,2.131663 -2.8058,3.094806 -2.8058,8.250004 0,4.125881 0.6974,7.253031 2.3792,10.66923 2.7081,5.500499 11.5723,14.836248 21.1208,22.244318 5.7241,4.44091 6.4824,5.4237 6.3526,8.23297 -0.1622,3.50935 2.2206,4.53441 3.3475,1.44007 z"
         id="path2351-1" />
      <path
         style="fill:#ffffff;fill-opacity:1"
         d="m 1079.2669,73.889045 c 26.6777,-9.13336 44.0374,-21.37642 51.2694,-36.15803 5.0641,-10.35061 3.3319,-24.19343 -3.8847,-31.0450097 -5.0485,-4.79308 -7.046,-4.96814 -9.0374,-0.79204 -0.9226,1.93457 -3.517,5.5131297 -5.7653,7.9523497 -8.17,8.86335 -18.7807,13.5452 -30.6982,13.5452 -5.8136,0 -6.7851,0.31541 -10.6005,3.4419 -7.1149,5.83006 -13.8135,7.22967 -17.1193,3.57686 -2.3141,-2.55705 -1.0456,-4.21362 5.9202,-7.73179 6.0039,-3.0323 9.9382,-5.95379 8.8464,-6.56899 -0.431,-0.2428 -2.1335,-0.76374 -3.7835,-1.15763 -1.65,-0.3939 -3.8206,-1.45577 -4.8235,-2.35973 -2.5803,-2.32576 -10.6765,-4.31831 -10.6765,-2.62759 0,0.69512 1.575,2.23725 3.5,3.42697 3.614,2.23357 4.8454,3.76155 1.75,2.17137 -0.9625,-0.49445 -4.2869,-1.14754 -7.3875,-1.45132 -3.1006,-0.30377 -7.0907,-1.30381 -8.8669,-2.2223 -2.2141,-1.14496 -6.1007,-1.72972 -12.3625,-1.85999 -8.9833,-0.1869 -15.6332,-2.17336 -15.6332,-4.6699997 0,-0.53948 3.0375,-2.94195 6.75,-5.33881 10.3371,-6.67383 15.7065,-11.871305 17.1127,-16.5648353 1.0969,-3.661304 0.9605,-4.812401 -1.3196,-11.133403 -3.4079,-9.44742 -3.4876,-18.259739 -0.2089,-23.091151 l 2.3341,-3.439522 -3.4297,-11.45002 c -3.4752,-11.60213 -5.313,-27.53283 -3.8491,-33.36548 1.2635,-5.034244 5.7752,-3.31965 15.6396,5.94352 4.8108,4.51761 11.8471,9.25782 12.3139,8.29567 10.8598,-22.383154 37.3743,-42.104974 67.1571,-49.952344 8.0122,-2.11113 11.0851,-2.36468 28,-2.31035 16.3582,0.0525 20.1123,0.3668 27,2.26015 9.925,2.72832 22.8959,8.85861 31.0403,14.67031 5.7872,4.12967 19.9601,18.341414 19.1246,19.176964 -0.2081,0.20809 -2.3553,-0.76061 -4.7716,-2.15265 -2.4163,-1.392044 -7.2532,-3.427574 -10.7486,-4.523404 -12.0129,-3.76606 -33.4561,-1.98472 -44.5363,3.699754 l -3.5238,1.80784 16.2077,0.0456 c 14.851,0.0417 16.8773,0.26979 24.2077,2.72441 16.3185,5.46433 28.9831,15.74155 33.5603,27.23392 2.111,5.30037 2.3846,7.56249 2.3577,19.4961 -0.048,21.170973 -5.2268,38.487986 -16.4851,55.1188313 -4.1524,6.1339897 -24.8403,28.3071497 -25.6529,27.4945997 -0.2172,-0.21725 1.2383,-2.9482 3.2345,-6.06879 8.0559,-12.59336 11.9783,-25.6022897 11.2741,-37.3911747 -0.6768,-11.3273933 -5.8426,-20.3524033 -15.8576,-27.7040593 -4.3052,-3.160371 -13.6287,-7.085064 -14.5774,-6.13635 -0.1742,0.174152 1.9528,2.762458 4.7266,5.751789 6.0607,6.531517 12.536,19.193917 14.0299,27.43515 1.2851,7.0888453 0.5282,15.3316253 -2.1126,23.007095 -11.7555,34.168 -48.1602,56.75788 -101.4914,62.97753 -7.1467,0.83346 -16.3717,1.4863 -20.5,1.45077 l -7.5061,-0.0646 z m -4.6528,-62.24753 c 0.3505,-0.9625 1.9415,-3.2624897 3.5356,-5.1110897 3.4466,-3.99706 5.0228,-7.74898 4.2621,-10.14568 -0.3042,-0.95843 -2.6782,-2.54751 -5.2755,-3.53128 -9.2188,-3.4917753 -15.9431,-9.0095593 -16.4464,-13.4955083 -0.2136,-1.90426 0.2415,-2.5341 2.0146,-2.78808 2.1345,-0.30575 4.9725,0.99938 11.5628,5.31751 2.586,1.694379 2.6572,1.690149 2.0158,-0.11971 -1.1734,-3.31125 -8.5084,-12.3072 -13.2597,-16.26233 -9.0496,-7.533095 -14.0557,-8.784492 -18.8037,-4.700424 -2.4782,2.131663 -2.8057,3.094806 -2.8057,8.250004 0,4.12588 0.6973,7.25303 2.3792,10.66923 2.708,5.500499 11.5722,14.8362483 21.1208,22.2443183 5.724,4.44091 6.4824,5.4237 6.3525,8.2329697 -0.1622,3.50935 2.2206,4.53441 3.3476,1.44007 z"
         id="path2351" />
    </g>
    <text
       xml:space="preserve"
       style="font-style:normal;font-variant:normal;font-weight:normal;font-stretch:condensed;font-size:50.1921px;line-height:1.25;font-family:Impact;-inkscape-font-specification:'Impact Condensed';letter-spacing:0.115018px;word-spacing:0.0575088px;fill:#000000;fill-opacity:1;stroke:none;stroke-width:1.25481"
       x="357.70984"
       y="75.751579"
       id="text3783"
       transform="scale(1.2548039,0.79693728)"
       inkscape:export-filename="C:\xampp\htdocs\proyectos\InterfacesTP3\img\logo.png"
       inkscape:export-xdpi="161.12436"
       inkscape:export-ydpi="161.12436"><tspan
         sodipodi:role="line"
         id="tspan3781"
         x="357.70984"
         y="75.751579"
         style="font-style:normal;font-variant:normal;font-weight:normal;font-stretch:condensed;font-family:Impact;-inkscape-font-specification:'Impact Condensed';stroke-width:1.25481"
         dx="-0.046007019">RUNNING GAME </tspan></text>
    <text
       xml:space="preserve"
       style="font-style:normal;font-weight:normal;font-size:17.126px;line-height:1.25;font-family:sans-serif;fill:#ffffff;fill-opacity:1;stroke:none;stroke-width:0.42815"
       x="457.77972"
       y="119.84569"
       id="text27543"
       transform="scale(1.3450215,0.74348254)"
       inkscape:export-filename="C:\xampp\htdocs\proyectos\InterfacesTP3\img\logo.png"
       inkscape:export-xdpi="161.12436"
       inkscape:export-ydpi="161.12436"><tspan
         sodipodi:role="line"
         x="457.77972"
         y="119.84569"
         id="tspan31117"
         style="font-style:italic;font-variant:normal;font-weight:normal;font-stretch:normal;font-family:Impact;-inkscape-font-specification:'Impact Italic';text-align:center;text-anchor:middle;fill:#ffffff;fill-opacity:1;stroke-width:0.42815">BY: FACUNDO ARANA ,  GABRIEL QUATTRINI</tspan></text>
  </g>
  <script
     id="mesh_polyfill"
     type="text/javascript">
!function(){const t=&quot;http://www.w3.org/2000/svg&quot;,e=&quot;http://www.w3.org/1999/xlink&quot;,s=&quot;http://www.w3.org/1999/xhtml&quot;,r=2;if(document.createElementNS(t,&quot;meshgradient&quot;).x)return;const n=(t,e,s,r)=&gt;{let n=new x(.5*(e.x+s.x),.5*(e.y+s.y)),o=new x(.5*(t.x+e.x),.5*(t.y+e.y)),i=new x(.5*(s.x+r.x),.5*(s.y+r.y)),a=new x(.5*(n.x+o.x),.5*(n.y+o.y)),h=new x(.5*(n.x+i.x),.5*(n.y+i.y)),l=new x(.5*(a.x+h.x),.5*(a.y+h.y));return[[t,o,a,l],[l,h,i,r]]},o=t=&gt;{let e=t[0].distSquared(t[1]),s=t[2].distSquared(t[3]),r=.25*t[0].distSquared(t[2]),n=.25*t[1].distSquared(t[3]),o=e&gt;s?e:s,i=r&gt;n?r:n;return 18*(o&gt;i?o:i)},i=(t,e)=&gt;Math.sqrt(t.distSquared(e)),a=(t,e)=&gt;t.scale(2/3).add(e.scale(1/3)),h=t=&gt;{let e,s,r,n,o,i,a,h=new g;return t.match(/(\w+\(\s*[^)]+\))+/g).forEach(t=&gt;{let l=t.match(/[\w.-]+/g),d=l.shift();switch(d){case&quot;translate&quot;:2===l.length?e=new g(1,0,0,1,l[0],l[1]):(console.error(&quot;mesh.js: translate does not have 2 arguments!&quot;),e=new g(1,0,0,1,0,0)),h=h.append(e);break;case&quot;scale&quot;:1===l.length?s=new g(l[0],0,0,l[0],0,0):2===l.length?s=new g(l[0],0,0,l[1],0,0):(console.error(&quot;mesh.js: scale does not have 1 or 2 arguments!&quot;),s=new g(1,0,0,1,0,0)),h=h.append(s);break;case&quot;rotate&quot;:if(3===l.length&amp;&amp;(e=new g(1,0,0,1,l[1],l[2]),h=h.append(e)),l[0]){r=l[0]*Math.PI/180;let t=Math.cos(r),e=Math.sin(r);Math.abs(t)&lt;1e-16&amp;&amp;(t=0),Math.abs(e)&lt;1e-16&amp;&amp;(e=0),a=new g(t,e,-e,t,0,0),h=h.append(a)}else console.error(&quot;math.js: No argument to rotate transform!&quot;);3===l.length&amp;&amp;(e=new g(1,0,0,1,-l[1],-l[2]),h=h.append(e));break;case&quot;skewX&quot;:l[0]?(r=l[0]*Math.PI/180,n=Math.tan(r),o=new g(1,0,n,1,0,0),h=h.append(o)):console.error(&quot;math.js: No argument to skewX transform!&quot;);break;case&quot;skewY&quot;:l[0]?(r=l[0]*Math.PI/180,n=Math.tan(r),i=new g(1,n,0,1,0,0),h=h.append(i)):console.error(&quot;math.js: No argument to skewY transform!&quot;);break;case&quot;matrix&quot;:6===l.length?h=h.append(new g(...l)):console.error(&quot;math.js: Incorrect number of arguments for matrix!&quot;);break;default:console.error(&quot;mesh.js: Unhandled transform type: &quot;+d)}}),h},l=t=&gt;{let e=[],s=t.split(/[ ,]+/);for(let t=0,r=s.length-1;t&lt;r;t+=2)e.push(new x(parseFloat(s[t]),parseFloat(s[t+1])));return e},d=(t,e)=&gt;{for(let s in e)t.setAttribute(s,e[s])},c=(t,e,s,r,n)=&gt;{let o,i,a=[0,0,0,0];for(let h=0;h&lt;3;++h)e[h]&lt;t[h]&amp;&amp;e[h]&lt;s[h]||t[h]&lt;e[h]&amp;&amp;s[h]&lt;e[h]?a[h]=0:(a[h]=.5*((e[h]-t[h])/r+(s[h]-e[h])/n),o=Math.abs(3*(e[h]-t[h])/r),i=Math.abs(3*(s[h]-e[h])/n),a[h]&gt;o?a[h]=o:a[h]&gt;i&amp;&amp;(a[h]=i));return a},u=[[1,0,0,0,0,0,0,0,0,0,0,0,0,0,0,0],[0,0,0,0,1,0,0,0,0,0,0,0,0,0,0,0],[-3,3,0,0,-2,-1,0,0,0,0,0,0,0,0,0,0],[2,-2,0,0,1,1,0,0,0,0,0,0,0,0,0,0],[0,0,0,0,0,0,0,0,1,0,0,0,0,0,0,0],[0,0,0,0,0,0,0,0,0,0,0,0,1,0,0,0],[0,0,0,0,0,0,0,0,-3,3,0,0,-2,-1,0,0],[0,0,0,0,0,0,0,0,2,-2,0,0,1,1,0,0],[-3,0,3,0,0,0,0,0,-2,0,-1,0,0,0,0,0],[0,0,0,0,-3,0,3,0,0,0,0,0,-2,0,-1,0],[9,-9,-9,9,6,3,-6,-3,6,-6,3,-3,4,2,2,1],[-6,6,6,-6,-3,-3,3,3,-4,4,-2,2,-2,-2,-1,-1],[2,0,-2,0,0,0,0,0,1,0,1,0,0,0,0,0],[0,0,0,0,2,0,-2,0,0,0,0,0,1,0,1,0],[-6,6,6,-6,-4,-2,4,2,-3,3,-3,3,-2,-1,-2,-1],[4,-4,-4,4,2,2,-2,-2,2,-2,2,-2,1,1,1,1]],f=t=&gt;{let e=[];for(let s=0;s&lt;16;++s){e[s]=0;for(let r=0;r&lt;16;++r)e[s]+=u[s][r]*t[r]}return e},p=(t,e,s)=&gt;{const r=e*e,n=s*s,o=e*e*e,i=s*s*s;return t[0]+t[1]*e+t[2]*r+t[3]*o+t[4]*s+t[5]*s*e+t[6]*s*r+t[7]*s*o+t[8]*n+t[9]*n*e+t[10]*n*r+t[11]*n*o+t[12]*i+t[13]*i*e+t[14]*i*r+t[15]*i*o},y=t=&gt;{let e=[],s=[],r=[];for(let s=0;s&lt;4;++s)e[s]=[],e[s][0]=n(t[0][s],t[1][s],t[2][s],t[3][s]),e[s][1]=[],e[s][1].push(...n(...e[s][0][0])),e[s][1].push(...n(...e[s][0][1])),e[s][2]=[],e[s][2].push(...n(...e[s][1][0])),e[s][2].push(...n(...e[s][1][1])),e[s][2].push(...n(...e[s][1][2])),e[s][2].push(...n(...e[s][1][3]));for(let t=0;t&lt;8;++t){s[t]=[];for(let r=0;r&lt;4;++r)s[t][r]=[],s[t][r][0]=n(e[0][2][t][r],e[1][2][t][r],e[2][2][t][r],e[3][2][t][r]),s[t][r][1]=[],s[t][r][1].push(...n(...s[t][r][0][0])),s[t][r][1].push(...n(...s[t][r][0][1])),s[t][r][2]=[],s[t][r][2].push(...n(...s[t][r][1][0])),s[t][r][2].push(...n(...s[t][r][1][1])),s[t][r][2].push(...n(...s[t][r][1][2])),s[t][r][2].push(...n(...s[t][r][1][3]))}for(let t=0;t&lt;8;++t){r[t]=[];for(let e=0;e&lt;8;++e)r[t][e]=[],r[t][e][0]=s[t][0][2][e],r[t][e][1]=s[t][1][2][e],r[t][e][2]=s[t][2][2][e],r[t][e][3]=s[t][3][2][e]}return r};class x{constructor(t,e){this.x=t||0,this.y=e||0}toString(){return`(x=${this.x}, y=${this.y})`}clone(){return new x(this.x,this.y)}add(t){return new x(this.x+t.x,this.y+t.y)}scale(t){return void 0===t.x?new x(this.x*t,this.y*t):new x(this.x*t.x,this.y*t.y)}distSquared(t){let e=this.x-t.x,s=this.y-t.y;return e*e+s*s}transform(t){let e=this.x*t.a+this.y*t.c+t.e,s=this.x*t.b+this.y*t.d+t.f;return new x(e,s)}}class g{constructor(t,e,s,r,n,o){void 0===t?(this.a=1,this.b=0,this.c=0,this.d=1,this.e=0,this.f=0):(this.a=t,this.b=e,this.c=s,this.d=r,this.e=n,this.f=o)}toString(){return`affine: ${this.a} ${this.c} ${this.e} \n       ${this.b} ${this.d} ${this.f}`}append(t){t instanceof g||console.error(&quot;mesh.js: argument to Affine.append is not affine!&quot;);let e=this.a*t.a+this.c*t.b,s=this.b*t.a+this.d*t.b,r=this.a*t.c+this.c*t.d,n=this.b*t.c+this.d*t.d,o=this.a*t.e+this.c*t.f+this.e,i=this.b*t.e+this.d*t.f+this.f;return new g(e,s,r,n,o,i)}}class w{constructor(t,e){this.nodes=t,this.colors=e}paintCurve(t,e){if(o(this.nodes)&gt;r){const s=n(...this.nodes);let r=[[],[]],o=[[],[]];for(let t=0;t&lt;4;++t)r[0][t]=this.colors[0][t],r[1][t]=(this.colors[0][t]+this.colors[1][t])/2,o[0][t]=r[1][t],o[1][t]=this.colors[1][t];let i=new w(s[0],r),a=new w(s[1],o);i.paintCurve(t,e),a.paintCurve(t,e)}else{let s=Math.round(this.nodes[0].x);if(s&gt;=0&amp;&amp;s&lt;e){let r=4*(~~this.nodes[0].y*e+s);t[r]=Math.round(this.colors[0][0]),t[r+1]=Math.round(this.colors[0][1]),t[r+2]=Math.round(this.colors[0][2]),t[r+3]=Math.round(this.colors[0][3])}}}}class m{constructor(t,e){this.nodes=t,this.colors=e}split(){let t=[[],[],[],[]],e=[[],[],[],[]],s=[[[],[]],[[],[]]],r=[[[],[]],[[],[]]];for(let s=0;s&lt;4;++s){const r=n(this.nodes[0][s],this.nodes[1][s],this.nodes[2][s],this.nodes[3][s]);t[0][s]=r[0][0],t[1][s]=r[0][1],t[2][s]=r[0][2],t[3][s]=r[0][3],e[0][s]=r[1][0],e[1][s]=r[1][1],e[2][s]=r[1][2],e[3][s]=r[1][3]}for(let t=0;t&lt;4;++t)s[0][0][t]=this.colors[0][0][t],s[0][1][t]=this.colors[0][1][t],s[1][0][t]=(this.colors[0][0][t]+this.colors[1][0][t])/2,s[1][1][t]=(this.colors[0][1][t]+this.colors[1][1][t])/2,r[0][0][t]=s[1][0][t],r[0][1][t]=s[1][1][t],r[1][0][t]=this.colors[1][0][t],r[1][1][t]=this.colors[1][1][t];return[new m(t,s),new m(e,r)]}paint(t,e){let s,n=!1;for(let t=0;t&lt;4;++t)if((s=o([this.nodes[0][t],this.nodes[1][t],this.nodes[2][t],this.nodes[3][t]]))&gt;r){n=!0;break}if(n){let s=this.split();s[0].paint(t,e),s[1].paint(t,e)}else{new w([...this.nodes[0]],[...this.colors[0]]).paintCurve(t,e)}}}class b{constructor(t){this.readMesh(t),this.type=t.getAttribute(&quot;type&quot;)||&quot;bilinear&quot;}readMesh(t){let e=[[]],s=[[]],r=Number(t.getAttribute(&quot;x&quot;)),n=Number(t.getAttribute(&quot;y&quot;));e[0][0]=new x(r,n);let o=t.children;for(let t=0,r=o.length;t&lt;r;++t){e[3*t+1]=[],e[3*t+2]=[],e[3*t+3]=[],s[t+1]=[];let r=o[t].children;for(let n=0,o=r.length;n&lt;o;++n){let o=r[n].children;for(let r=0,i=o.length;r&lt;i;++r){let i=r;0!==t&amp;&amp;++i;let h,d=o[r].getAttribute(&quot;path&quot;),c=&quot;l&quot;;null!=d&amp;&amp;(c=(h=d.match(/\s*([lLcC])\s*(.*)/))[1]);let u=l(h[2]);switch(c){case&quot;l&quot;:0===i?(e[3*t][3*n+3]=u[0].add(e[3*t][3*n]),e[3*t][3*n+1]=a(e[3*t][3*n],e[3*t][3*n+3]),e[3*t][3*n+2]=a(e[3*t][3*n+3],e[3*t][3*n])):1===i?(e[3*t+3][3*n+3]=u[0].add(e[3*t][3*n+3]),e[3*t+1][3*n+3]=a(e[3*t][3*n+3],e[3*t+3][3*n+3]),e[3*t+2][3*n+3]=a(e[3*t+3][3*n+3],e[3*t][3*n+3])):2===i?(0===n&amp;&amp;(e[3*t+3][3*n+0]=u[0].add(e[3*t+3][3*n+3])),e[3*t+3][3*n+1]=a(e[3*t+3][3*n],e[3*t+3][3*n+3]),e[3*t+3][3*n+2]=a(e[3*t+3][3*n+3],e[3*t+3][3*n])):(e[3*t+1][3*n]=a(e[3*t][3*n],e[3*t+3][3*n]),e[3*t+2][3*n]=a(e[3*t+3][3*n],e[3*t][3*n]));break;case&quot;L&quot;:0===i?(e[3*t][3*n+3]=u[0],e[3*t][3*n+1]=a(e[3*t][3*n],e[3*t][3*n+3]),e[3*t][3*n+2]=a(e[3*t][3*n+3],e[3*t][3*n])):1===i?(e[3*t+3][3*n+3]=u[0],e[3*t+1][3*n+3]=a(e[3*t][3*n+3],e[3*t+3][3*n+3]),e[3*t+2][3*n+3]=a(e[3*t+3][3*n+3],e[3*t][3*n+3])):2===i?(0===n&amp;&amp;(e[3*t+3][3*n+0]=u[0]),e[3*t+3][3*n+1]=a(e[3*t+3][3*n],e[3*t+3][3*n+3]),e[3*t+3][3*n+2]=a(e[3*t+3][3*n+3],e[3*t+3][3*n])):(e[3*t+1][3*n]=a(e[3*t][3*n],e[3*t+3][3*n]),e[3*t+2][3*n]=a(e[3*t+3][3*n],e[3*t][3*n]));break;case&quot;c&quot;:0===i?(e[3*t][3*n+1]=u[0].add(e[3*t][3*n]),e[3*t][3*n+2]=u[1].add(e[3*t][3*n]),e[3*t][3*n+3]=u[2].add(e[3*t][3*n])):1===i?(e[3*t+1][3*n+3]=u[0].add(e[3*t][3*n+3]),e[3*t+2][3*n+3]=u[1].add(e[3*t][3*n+3]),e[3*t+3][3*n+3]=u[2].add(e[3*t][3*n+3])):2===i?(e[3*t+3][3*n+2]=u[0].add(e[3*t+3][3*n+3]),e[3*t+3][3*n+1]=u[1].add(e[3*t+3][3*n+3]),0===n&amp;&amp;(e[3*t+3][3*n+0]=u[2].add(e[3*t+3][3*n+3]))):(e[3*t+2][3*n]=u[0].add(e[3*t+3][3*n]),e[3*t+1][3*n]=u[1].add(e[3*t+3][3*n]));break;case&quot;C&quot;:0===i?(e[3*t][3*n+1]=u[0],e[3*t][3*n+2]=u[1],e[3*t][3*n+3]=u[2]):1===i?(e[3*t+1][3*n+3]=u[0],e[3*t+2][3*n+3]=u[1],e[3*t+3][3*n+3]=u[2]):2===i?(e[3*t+3][3*n+2]=u[0],e[3*t+3][3*n+1]=u[1],0===n&amp;&amp;(e[3*t+3][3*n+0]=u[2])):(e[3*t+2][3*n]=u[0],e[3*t+1][3*n]=u[1]);break;default:console.error(&quot;mesh.js: &quot;+c+&quot; invalid path type.&quot;)}if(0===t&amp;&amp;0===n||r&gt;0){let e=window.getComputedStyle(o[r]).stopColor.match(/^rgb\s*\(\s*(\d+)\s*,\s*(\d+)\s*,\s*(\d+)\s*\)$/i),a=window.getComputedStyle(o[r]).stopOpacity,h=255;a&amp;&amp;(h=Math.floor(255*a)),e&amp;&amp;(0===i?(s[t][n]=[],s[t][n][0]=Math.floor(e[1]),s[t][n][1]=Math.floor(e[2]),s[t][n][2]=Math.floor(e[3]),s[t][n][3]=h):1===i?(s[t][n+1]=[],s[t][n+1][0]=Math.floor(e[1]),s[t][n+1][1]=Math.floor(e[2]),s[t][n+1][2]=Math.floor(e[3]),s[t][n+1][3]=h):2===i?(s[t+1][n+1]=[],s[t+1][n+1][0]=Math.floor(e[1]),s[t+1][n+1][1]=Math.floor(e[2]),s[t+1][n+1][2]=Math.floor(e[3]),s[t+1][n+1][3]=h):3===i&amp;&amp;(s[t+1][n]=[],s[t+1][n][0]=Math.floor(e[1]),s[t+1][n][1]=Math.floor(e[2]),s[t+1][n][2]=Math.floor(e[3]),s[t+1][n][3]=h))}}e[3*t+1][3*n+1]=new x,e[3*t+1][3*n+2]=new x,e[3*t+2][3*n+1]=new x,e[3*t+2][3*n+2]=new x,e[3*t+1][3*n+1].x=(-4*e[3*t][3*n].x+6*(e[3*t][3*n+1].x+e[3*t+1][3*n].x)+-2*(e[3*t][3*n+3].x+e[3*t+3][3*n].x)+3*(e[3*t+3][3*n+1].x+e[3*t+1][3*n+3].x)+-1*e[3*t+3][3*n+3].x)/9,e[3*t+1][3*n+2].x=(-4*e[3*t][3*n+3].x+6*(e[3*t][3*n+2].x+e[3*t+1][3*n+3].x)+-2*(e[3*t][3*n].x+e[3*t+3][3*n+3].x)+3*(e[3*t+3][3*n+2].x+e[3*t+1][3*n].x)+-1*e[3*t+3][3*n].x)/9,e[3*t+2][3*n+1].x=(-4*e[3*t+3][3*n].x+6*(e[3*t+3][3*n+1].x+e[3*t+2][3*n].x)+-2*(e[3*t+3][3*n+3].x+e[3*t][3*n].x)+3*(e[3*t][3*n+1].x+e[3*t+2][3*n+3].x)+-1*e[3*t][3*n+3].x)/9,e[3*t+2][3*n+2].x=(-4*e[3*t+3][3*n+3].x+6*(e[3*t+3][3*n+2].x+e[3*t+2][3*n+3].x)+-2*(e[3*t+3][3*n].x+e[3*t][3*n+3].x)+3*(e[3*t][3*n+2].x+e[3*t+2][3*n].x)+-1*e[3*t][3*n].x)/9,e[3*t+1][3*n+1].y=(-4*e[3*t][3*n].y+6*(e[3*t][3*n+1].y+e[3*t+1][3*n].y)+-2*(e[3*t][3*n+3].y+e[3*t+3][3*n].y)+3*(e[3*t+3][3*n+1].y+e[3*t+1][3*n+3].y)+-1*e[3*t+3][3*n+3].y)/9,e[3*t+1][3*n+2].y=(-4*e[3*t][3*n+3].y+6*(e[3*t][3*n+2].y+e[3*t+1][3*n+3].y)+-2*(e[3*t][3*n].y+e[3*t+3][3*n+3].y)+3*(e[3*t+3][3*n+2].y+e[3*t+1][3*n].y)+-1*e[3*t+3][3*n].y)/9,e[3*t+2][3*n+1].y=(-4*e[3*t+3][3*n].y+6*(e[3*t+3][3*n+1].y+e[3*t+2][3*n].y)+-2*(e[3*t+3][3*n+3].y+e[3*t][3*n].y)+3*(e[3*t][3*n+1].y+e[3*t+2][3*n+3].y)+-1*e[3*t][3*n+3].y)/9,e[3*t+2][3*n+2].y=(-4*e[3*t+3][3*n+3].y+6*(e[3*t+3][3*n+2].y+e[3*t+2][3*n+3].y)+-2*(e[3*t+3][3*n].y+e[3*t][3*n+3].y)+3*(e[3*t][3*n+2].y+e[3*t+2][3*n].y)+-1*e[3*t][3*n].y)/9}}this.nodes=e,this.colors=s}paintMesh(t,e){let s=(this.nodes.length-1)/3,r=(this.nodes[0].length-1)/3;if(&quot;bilinear&quot;===this.type||s&lt;2||r&lt;2){let n;for(let o=0;o&lt;s;++o)for(let s=0;s&lt;r;++s){let r=[];for(let t=3*o,e=3*o+4;t&lt;e;++t)r.push(this.nodes[t].slice(3*s,3*s+4));let i=[];i.push(this.colors[o].slice(s,s+2)),i.push(this.colors[o+1].slice(s,s+2)),(n=new m(r,i)).paint(t,e)}}else{let n,o,a,h,l,d,u;const x=s,g=r;s++,r++;let w=new Array(s);for(let t=0;t&lt;s;++t){w[t]=new Array(r);for(let e=0;e&lt;r;++e)w[t][e]=[],w[t][e][0]=this.nodes[3*t][3*e],w[t][e][1]=this.colors[t][e]}for(let t=0;t&lt;s;++t)for(let e=0;e&lt;r;++e)0!==t&amp;&amp;t!==x&amp;&amp;(n=i(w[t-1][e][0],w[t][e][0]),o=i(w[t+1][e][0],w[t][e][0]),w[t][e][2]=c(w[t-1][e][1],w[t][e][1],w[t+1][e][1],n,o)),0!==e&amp;&amp;e!==g&amp;&amp;(n=i(w[t][e-1][0],w[t][e][0]),o=i(w[t][e+1][0],w[t][e][0]),w[t][e][3]=c(w[t][e-1][1],w[t][e][1],w[t][e+1][1],n,o));for(let t=0;t&lt;r;++t){w[0][t][2]=[],w[x][t][2]=[];for(let e=0;e&lt;4;++e)n=i(w[1][t][0],w[0][t][0]),o=i(w[x][t][0],w[x-1][t][0]),w[0][t][2][e]=n&gt;0?2*(w[1][t][1][e]-w[0][t][1][e])/n-w[1][t][2][e]:0,w[x][t][2][e]=o&gt;0?2*(w[x][t][1][e]-w[x-1][t][1][e])/o-w[x-1][t][2][e]:0}for(let t=0;t&lt;s;++t){w[t][0][3]=[],w[t][g][3]=[];for(let e=0;e&lt;4;++e)n=i(w[t][1][0],w[t][0][0]),o=i(w[t][g][0],w[t][g-1][0]),w[t][0][3][e]=n&gt;0?2*(w[t][1][1][e]-w[t][0][1][e])/n-w[t][1][3][e]:0,w[t][g][3][e]=o&gt;0?2*(w[t][g][1][e]-w[t][g-1][1][e])/o-w[t][g-1][3][e]:0}for(let s=0;s&lt;x;++s)for(let r=0;r&lt;g;++r){let n=i(w[s][r][0],w[s+1][r][0]),o=i(w[s][r+1][0],w[s+1][r+1][0]),c=i(w[s][r][0],w[s][r+1][0]),x=i(w[s+1][r][0],w[s+1][r+1][0]),g=[[],[],[],[]];for(let t=0;t&lt;4;++t){(d=[])[0]=w[s][r][1][t],d[1]=w[s+1][r][1][t],d[2]=w[s][r+1][1][t],d[3]=w[s+1][r+1][1][t],d[4]=w[s][r][2][t]*n,d[5]=w[s+1][r][2][t]*n,d[6]=w[s][r+1][2][t]*o,d[7]=w[s+1][r+1][2][t]*o,d[8]=w[s][r][3][t]*c,d[9]=w[s+1][r][3][t]*x,d[10]=w[s][r+1][3][t]*c,d[11]=w[s+1][r+1][3][t]*x,d[12]=0,d[13]=0,d[14]=0,d[15]=0,u=f(d);for(let e=0;e&lt;9;++e){g[t][e]=[];for(let s=0;s&lt;9;++s)g[t][e][s]=p(u,e/8,s/8),g[t][e][s]&gt;255?g[t][e][s]=255:g[t][e][s]&lt;0&amp;&amp;(g[t][e][s]=0)}}h=[];for(let t=3*s,e=3*s+4;t&lt;e;++t)h.push(this.nodes[t].slice(3*r,3*r+4));l=y(h);for(let s=0;s&lt;8;++s)for(let r=0;r&lt;8;++r)(a=new m(l[s][r],[[[g[0][s][r],g[1][s][r],g[2][s][r],g[3][s][r]],[g[0][s][r+1],g[1][s][r+1],g[2][s][r+1],g[3][s][r+1]]],[[g[0][s+1][r],g[1][s+1][r],g[2][s+1][r],g[3][s+1][r]],[g[0][s+1][r+1],g[1][s+1][r+1],g[2][s+1][r+1],g[3][s+1][r+1]]]])).paint(t,e)}}}transform(t){if(t instanceof x)for(let e=0,s=this.nodes.length;e&lt;s;++e)for(let s=0,r=this.nodes[0].length;s&lt;r;++s)this.nodes[e][s]=this.nodes[e][s].add(t);else if(t instanceof g)for(let e=0,s=this.nodes.length;e&lt;s;++e)for(let s=0,r=this.nodes[0].length;s&lt;r;++s)this.nodes[e][s]=this.nodes[e][s].transform(t)}scale(t){for(let e=0,s=this.nodes.length;e&lt;s;++e)for(let s=0,r=this.nodes[0].length;s&lt;r;++s)this.nodes[e][s]=this.nodes[e][s].scale(t)}}document.querySelectorAll(&quot;rect,circle,ellipse,path,text&quot;).forEach((r,n)=&gt;{let o=r.getAttribute(&quot;id&quot;);o||(o=&quot;patchjs_shape&quot;+n,r.setAttribute(&quot;id&quot;,o));const i=r.style.fill.match(/^url\(\s*&quot;?\s*#([^\s&quot;]+)&quot;?\s*\)/),a=r.style.stroke.match(/^url\(\s*&quot;?\s*#([^\s&quot;]+)&quot;?\s*\)/);if(i&amp;&amp;i[1]){const a=document.getElementById(i[1]);if(a&amp;&amp;&quot;meshgradient&quot;===a.nodeName){const i=r.getBBox();let l=document.createElementNS(s,&quot;canvas&quot;);d(l,{width:i.width,height:i.height});const c=l.getContext(&quot;2d&quot;);let u=c.createImageData(i.width,i.height);const f=new b(a);&quot;objectBoundingBox&quot;===a.getAttribute(&quot;gradientUnits&quot;)&amp;&amp;f.scale(new x(i.width,i.height));const p=a.getAttribute(&quot;gradientTransform&quot;);null!=p&amp;&amp;f.transform(h(p)),&quot;userSpaceOnUse&quot;===a.getAttribute(&quot;gradientUnits&quot;)&amp;&amp;f.transform(new x(-i.x,-i.y)),f.paintMesh(u.data,l.width),c.putImageData(u,0,0);const y=document.createElementNS(t,&quot;image&quot;);d(y,{width:i.width,height:i.height,x:i.x,y:i.y});let g=l.toDataURL();y.setAttributeNS(e,&quot;xlink:href&quot;,g),r.parentNode.insertBefore(y,r),r.style.fill=&quot;none&quot;;const w=document.createElementNS(t,&quot;use&quot;);w.setAttributeNS(e,&quot;xlink:href&quot;,&quot;#&quot;+o);const m=&quot;patchjs_clip&quot;+n,M=document.createElementNS(t,&quot;clipPath&quot;);M.setAttribute(&quot;id&quot;,m),M.appendChild(w),r.parentElement.insertBefore(M,r),y.setAttribute(&quot;clip-path&quot;,&quot;url(#&quot;+m+&quot;)&quot;),u=null,l=null,g=null}}if(a&amp;&amp;a[1]){const o=document.getElementById(a[1]);if(o&amp;&amp;&quot;meshgradient&quot;===o.nodeName){const i=parseFloat(r.style.strokeWidth.slice(0,-2))*(parseFloat(r.style.strokeMiterlimit)||parseFloat(r.getAttribute(&quot;stroke-miterlimit&quot;))||1),a=r.getBBox(),l=Math.trunc(a.width+i),c=Math.trunc(a.height+i),u=Math.trunc(a.x-i/2),f=Math.trunc(a.y-i/2);let p=document.createElementNS(s,&quot;canvas&quot;);d(p,{width:l,height:c});const y=p.getContext(&quot;2d&quot;);let g=y.createImageData(l,c);const w=new b(o);&quot;objectBoundingBox&quot;===o.getAttribute(&quot;gradientUnits&quot;)&amp;&amp;w.scale(new x(l,c));const m=o.getAttribute(&quot;gradientTransform&quot;);null!=m&amp;&amp;w.transform(h(m)),&quot;userSpaceOnUse&quot;===o.getAttribute(&quot;gradientUnits&quot;)&amp;&amp;w.transform(new x(-u,-f)),w.paintMesh(g.data,p.width),y.putImageData(g,0,0);const M=document.createElementNS(t,&quot;image&quot;);d(M,{width:l,height:c,x:0,y:0});let S=p.toDataURL();M.setAttributeNS(e,&quot;xlink:href&quot;,S);const k=&quot;pattern_clip&quot;+n,A=document.createElementNS(t,&quot;pattern&quot;);d(A,{id:k,patternUnits:&quot;userSpaceOnUse&quot;,width:l,height:c,x:u,y:f}),A.appendChild(M),o.parentNode.appendChild(A),r.style.stroke=&quot;url(#&quot;+k+&quot;)&quot;,g=null,p=null,S=null}}})}();
</script>
</svg>
